M48
; DRILL file {KiCad (6.0.1)} date Fri Feb 13 09:13:22 2026
; FORMAT={-:-/ absolute / inch / decimal}
; #@! TF.CreationDate,2026-02-13T09:13:22+05:30
; #@! TF.GenerationSoftware,Kicad,Pcbnew,(6.0.1)
; #@! TF.FileFunction,Plated,1,2,PTH
FMAT,2
INCH
; #@! TA.AperFunction,Plated,PTH,ViaDrill
T1C0.0157
; #@! TA.AperFunction,Plated,PTH,ComponentDrill
T2C0.0394
; #@! TA.AperFunction,Plated,PTH,ComponentDrill
T3C0.0472
%
G90
G05
T1
X3.68Y-4.7
X3.71Y-5.04
X3.84Y-4.16
X3.91Y-6.765
X3.975Y-4.78
X3.985Y-3.305
X3.99Y-6.81
X3.995Y-5.685
X4.055Y-5.445
X4.055Y-6.525
X4.06Y-5.34
X4.06Y-5.68
X4.12Y-5.735
X4.19Y-4.865
X4.19Y-5.0
X4.21Y-5.43
X4.265Y-5.345
X4.265Y-5.44
X4.3Y-3.81
X4.34Y-5.425
X4.355Y-3.63
X4.4Y-3.99
X4.42Y-6.47
X4.435Y-4.565
X4.445Y-4.42
X4.465Y-4.695
X4.5Y-4.57
X4.545Y-5.89
X4.555Y-3.435
X4.555Y-3.695
X4.595Y-4.805
X4.645Y-4.565
X4.66Y-4.375
X4.685Y-5.145
X4.7Y-4.75
X4.71Y-5.4
X4.7606Y-3.5006
X4.805Y-6.52
X4.81Y-6.625
X4.855Y-3.555
X4.86Y-3.015
X4.86Y-4.02
X4.86Y-4.66
X4.86Y-4.725
X4.8898Y-5.1298
X4.8935Y-5.37
X4.92Y-4.315
X4.955Y-4.155
X4.96Y-5.92
X4.96Y-6.54
X4.9606Y-3.6206
X5.045Y-4.475
X5.085Y-5.395
X5.085Y-6.765
X5.085Y-7.19
X5.1Y-7.27
X5.115Y-5.655
X5.12Y-4.56
X5.155Y-5.345
X5.225Y-4.12
X5.325Y-5.82
X5.33Y-4.025
X5.335Y-3.98
X5.37Y-7.23
X5.395Y-5.44
X5.475Y-3.92
X5.5Y-7.21
X5.62Y-4.555
X5.69Y-4.205
X5.7Y-4.36
X5.71Y-7.41
X5.735Y-3.8
X5.77Y-3.735
X5.775Y-7.285
X5.815Y-6.925
X5.86Y-7.16
X5.87Y-4.385
X5.9Y-4.47
X5.93Y-4.38
X5.95Y-5.735
X5.99Y-5.155
X6.005Y-8.25
X6.042Y-7.223
X6.045Y-8.22
X6.065Y-4.57
X6.07Y-3.7
X6.095Y-8.32
X6.13Y-4.155
X6.13Y-5.925
X6.135Y-8.165
X6.145Y-6.365
X6.145Y-7.27
X6.185Y-4.255
X6.185Y-5.875
X6.2276Y-6.9876
X6.23Y-7.475
X6.23Y-7.6
X6.27Y-6.125
X6.295Y-7.22
X6.375Y-6.07
X6.415Y-4.305
X6.475Y-7.97
X6.495Y-6.025
X6.535Y-6.74
X6.545Y-4.19
X6.625Y-4.01
X6.655Y-5.965
X6.715Y-4.8
X6.8Y-3.055
X6.87Y-6.655
X7.025Y-5.855
X7.025Y-5.965
X7.03Y-5.755
X7.036Y-5.651
X7.11Y-5.495
X7.11Y-6.07
X7.115Y-5.13
X7.115Y-5.315
X7.115Y-6.605
X7.116Y-4.079
X7.12Y-4.95
X7.121Y-3.969
X7.121Y-4.189
X7.121Y-4.304
X7.121Y-4.414
X7.121Y-4.529
X7.126Y-4.649
X7.126Y-4.769
X7.155Y-6.16
X7.2Y-3.885
X7.2Y-6.26
X7.204Y-4.414
X7.205Y-6.495
X7.225Y-7.98
X7.225Y-8.08
X7.225Y-8.18
X7.225Y-8.28
X7.225Y-8.38
X7.23Y-7.68
X7.23Y-7.78
X7.23Y-7.885
X7.235Y-7.12
X7.235Y-7.225
X7.235Y-7.325
X7.235Y-7.425
X7.235Y-7.525
X7.24Y-4.53
X7.24Y-6.37
X7.24Y-6.825
X7.24Y-6.92
X7.24Y-7.02
X7.245Y-3.885
X7.28Y-4.65
X7.285Y-3.885
X7.31Y-5.965
X7.325Y-3.885
X7.325Y-4.77
X7.345Y-5.855
X7.38Y-5.755
X7.405Y-3.895
X7.41Y-4.305
X7.425Y-5.31
X7.44Y-4.96
X7.455Y-3.895
X7.455Y-4.19
X7.475Y-5.125
X7.48Y-6.715
X7.5Y-8.5
X7.515Y-3.9
X7.52Y-4.08
X7.68Y-7.43
X7.68Y-7.525
X7.685Y-7.325
X7.69Y-7.225
X7.695Y-7.12
X7.7Y-6.825
X7.7Y-6.92
X7.7Y-7.02
X7.815Y-5.595
X7.885Y-3.055
T2
X3.7798Y-5.2906
X3.7798Y-5.3906
X3.7798Y-5.4906
X3.7798Y-5.5906
X3.7798Y-5.6906
X3.7798Y-5.7906
X3.7798Y-5.8906
X3.7798Y-5.9906
X3.8798Y-5.2906
X3.8798Y-5.3906
X3.8798Y-5.4906
X3.8798Y-5.5906
X3.8798Y-5.6906
X3.8798Y-5.7906
X3.8798Y-5.8906
X3.8798Y-5.9906
X4.6606Y-3.2902
X4.6606Y-3.3902
X4.7606Y-3.2902
X4.7606Y-3.3902
X4.8606Y-3.2902
X4.8606Y-3.3902
X4.9606Y-3.2902
X4.9606Y-3.3902
X5.0606Y-3.2902
X5.0606Y-3.3902
X5.1606Y-3.2902
X5.1606Y-3.3902
X5.2606Y-3.2902
X5.2606Y-3.3902
X5.3606Y-3.2902
X5.3606Y-3.3902
X8.5098Y-6.8306
X8.5098Y-6.9306
X8.5098Y-7.0306
X8.5098Y-7.1306
X8.5098Y-7.2306
X8.5098Y-7.3306
X8.5098Y-7.4306
X8.5098Y-7.5306
X8.5598Y-4.5806
X8.5598Y-4.6806
X8.5598Y-4.7806
X8.5598Y-4.8806
X8.5598Y-4.9806
X8.5598Y-5.0806
X8.5598Y-5.1806
X8.5598Y-5.2806
X8.6098Y-6.8306
X8.6098Y-6.9306
X8.6098Y-7.0306
X8.6098Y-7.1306
X8.6098Y-7.2306
X8.6098Y-7.3306
X8.6098Y-7.4306
X8.6098Y-7.5306
X8.6598Y-4.5806
X8.6598Y-4.6806
X8.6598Y-4.7806
X8.6598Y-4.8806
X8.6598Y-4.9806
X8.6598Y-5.0806
X8.6598Y-5.1806
X8.6598Y-5.2806
T3
X5.1307Y-8.2292
X5.3307Y-8.2292
T0
M30
