M48
; DRILL file {KiCad (6.0.1)} date Mon Mar 30 07:42:44 2026
; FORMAT={-:-/ absolute / inch / decimal}
; #@! TF.CreationDate,2026-03-30T07:42:44+05:30
; #@! TF.GenerationSoftware,Kicad,Pcbnew,(6.0.1)
; #@! TF.FileFunction,Plated,1,2,PTH
FMAT,2
INCH
; #@! TA.AperFunction,Plated,PTH,ViaDrill
T1C0.0157
; #@! TA.AperFunction,Plated,PTH,ComponentDrill
T2C0.0315
; #@! TA.AperFunction,Plated,PTH,ComponentDrill
T3C0.0394
; #@! TA.AperFunction,Plated,PTH,ComponentDrill
T4C0.0472
%
G90
G05
T1
X1.086Y-5.571
X1.224Y-5.91
X1.541Y-5.351
X1.908Y-5.669
X2.294Y-1.844
X2.297Y-1.773
X2.356Y-2.857
X2.357Y-2.912
X2.439Y-3.867
X2.44Y-3.734
X2.445Y-5.199
X2.514Y-4.747
X2.588Y-4.232
X2.621Y-2.542
X2.659Y-4.881
X2.661Y-4.692
X2.694Y-3.103
X2.697Y-4.283
X2.715Y-5.741
X2.727Y-1.813
X2.754Y-4.746
X2.769Y-4.377
X2.791Y-5.93
X2.794Y-5.655
X2.8Y-5.821
X2.801Y-5.745
X2.817Y-2.857
X2.86Y-4.873
X2.898Y-5.256
X2.906Y-5.655
X2.907Y-5.821
X2.908Y-5.745
X2.941Y-6.336
X2.943Y-6.275
X2.954Y-4.566
X2.972Y-6.233
X2.995Y-4.823
X3.013Y-4.723
X3.026Y-2.708
X3.037Y-2.809
X3.041Y-5.822
X3.043Y-4.774
X3.085Y-6.224
X3.097Y-5.744
X3.126Y-3.125
X3.126Y-6.137
X3.132Y-5.097
X3.173Y-3.859
X3.183Y-1.88
X3.207Y-4.923
X3.21Y-6.348
X3.214Y-5.654
X3.219Y-2.911
X3.226Y-4.72
X3.318Y-5.173
X3.371Y-4.449
X3.418Y-2.757
X3.441Y-3.806
X3.441Y-4.923
X3.453Y-5.028
X3.474Y-6.119
X3.524Y-3.195
X3.527Y-4.133
X3.53Y-4.3
X3.561Y-2.91
X3.579Y-3.404
X3.583Y-3.81
X3.605Y-5.497
X3.635Y-4.687
X3.663Y-2.963
X3.743Y-3.257
X3.781Y-2.153
X3.793Y-1.529
X3.826Y-2.827
X3.86Y-5.578
X3.958Y-5.433
X3.96Y-2.87
X3.9625Y-3.029
X3.99Y-2.153
X3.99Y-2.781
X3.992Y-2.615
X3.993Y-1.527
X3.993Y-6.142
X3.994Y-2.388
X3.995Y-1.246
X4.033Y-5.422
X4.035Y-2.552
X4.044Y-3.206
X4.052Y-3.028
X4.058Y-5.749
X4.072Y-5.936
X4.14Y-5.827
X4.143Y-2.805
X4.15Y-2.509
X4.15Y-3.372
X4.152Y-2.551
X4.193Y-2.827
X4.193Y-3.027
X4.223Y-4.154
X4.225Y-4.1
X4.233Y-1.187
X4.251Y-2.551
X4.272Y-3.4045
X4.277Y-4.047
X4.278Y-3.879
X4.295Y-3.214
X4.327Y-6.004
X4.344Y-2.811
X4.401Y-2.387
X4.419Y-3.71
X4.472Y-3.116
X4.475Y-3.47
X4.478Y-3.566
X4.496Y-3.215
X4.497Y-2.143
X4.514Y-4.971
X4.588Y-3.215
X4.609Y-1.536
X4.658Y-1.247
X4.667Y-4.204
X4.667Y-4.254
X4.6905Y-2.969
X4.6905Y-3.214
X4.697Y-2.142
X4.71Y-4.061
X4.76Y-2.668
X4.772Y-5.784
X4.827Y-1.536
X4.84Y-2.62
X4.927Y-2.127
X5.136Y-2.814
X5.152Y-2.126
X5.179Y-5.42
X5.244Y-2.849
X5.257Y-1.533
X5.262Y-2.121
X5.292Y-5.506
X5.294Y-6.065
X5.312Y-1.297
X5.32Y-2.165
X5.369Y-1.298
X5.382Y-2.606
X5.4Y-2.994
X5.432Y-2.802
X5.433Y-2.853
X5.436Y-2.746
X5.442Y-5.913
X5.445Y-2.929
X5.468Y-2.699
X5.481Y-2.122
X5.482Y-1.535
X5.495Y-3.01
X5.542Y-3.318
X5.589Y-3.23
X5.591Y-2.461
X5.598Y-2.352
X5.602Y-3.043
X5.641Y-3.3725
X5.642Y-2.46
X5.643Y-3.44
X5.655Y-4.679
X5.655Y-4.761
X5.691Y-2.513
X5.714Y-4.2107
X5.737Y-5.579
X5.741Y-2.852
X5.76Y-2.745
X5.783Y-4.187
X5.792Y-2.803
X5.794Y-6.004
X5.824Y-4.094
X5.898Y-2.355
X5.946Y-3.127
X6.004Y-1.296
X6.046Y-3.926
X6.061Y-1.293
X6.075Y-4.955
X6.105Y-4.213
X6.112Y-5.082
X6.117Y-2.108
X6.119Y-1.536
X6.151Y-5.243
X6.218Y-3.376
X6.26Y-3.439
X6.262Y-5.859
X6.265Y-5.414
X6.271Y-4.96
X6.337Y-1.536
X6.339Y-2.107
X6.34Y-5.029
X6.373Y-3.798
X6.384Y-5.528
X6.441Y-3.562
X6.442Y-4.507
X6.474Y-5.091
X6.483Y-2.988
X6.489Y-3.348
X6.494Y-3.411
X6.513Y-5.416
X6.515Y-5.865
X6.516Y-3.061
X6.539Y-4.593
X6.54Y-4.32
X6.554Y-3.455
X6.554Y-3.532
X6.585Y-5.029
X6.586Y-4.092
X6.59Y-5.657
X6.593Y-4.387
X6.593Y-5.276
X6.677Y-6.021
X6.762Y-3.983
X6.796Y-5.86
X6.81Y-3.813
X6.815Y-4.9
X6.816Y-4.487
X6.834Y-3.063
X6.865Y-4.521
X6.865Y-4.94
X6.8975Y-4.4455
X6.917Y-3.425
X6.934Y-2.705
X6.94Y-2.212
X6.967Y-4.988
X6.973Y-2.961
X6.981Y-2.858
X7.007Y-3.712
X7.03Y-4.9
X7.041Y-2.268
X7.043Y-3.011
X7.051Y-4.94
X7.054Y-4.725
X7.062Y-4.637
X7.067Y-4.24
X7.084Y-5.863
X7.115Y-5.141
X7.1185Y-4.812
X7.12Y-3.718
X7.147Y-4.85
X7.1535Y-3.936
X7.228Y-2.96
X7.242Y-5.762
X7.244Y-2.859
X7.305Y-5.964
X7.35Y-2.0348
X7.516Y-4.692
X7.546Y-2.849
X7.855Y-2.85
X7.901Y-3.387
X8.035Y-2.85
X8.232Y-2.0282
T2
X4.858Y-4.7638
X4.958Y-4.7638
X5.058Y-4.7638
T3
X2.185Y-5.47
X2.185Y-5.57
X2.185Y-5.67
X2.185Y-5.77
X2.285Y-5.47
X2.285Y-5.57
X2.285Y-5.67
X2.285Y-5.77
X2.974Y-5.936
X2.974Y-6.036
X3.074Y-5.936
X3.074Y-6.036
X3.174Y-5.936
X3.174Y-6.036
X3.274Y-5.936
X3.274Y-6.036
X3.374Y-5.936
X3.374Y-6.036
X3.474Y-5.936
X3.474Y-6.036
X3.574Y-5.936
X3.574Y-6.036
X3.674Y-5.936
X3.674Y-6.036
X3.774Y-5.936
X3.774Y-6.036
X3.874Y-5.936
X3.874Y-6.036
X4.0954Y-1.7813
X4.0954Y-1.8813
X4.1954Y-1.7813
X4.1954Y-1.8813
X4.2954Y-1.7813
X4.2954Y-1.8813
X4.3954Y-1.7813
X4.3954Y-1.8813
X5.595Y-1.7814
X5.595Y-1.8814
X5.695Y-1.7814
X5.695Y-1.8814
X5.795Y-1.7814
X5.795Y-1.8814
X5.895Y-1.7814
X5.895Y-1.8814
X6.7424Y-1.7752
X6.7424Y-1.8752
X6.8424Y-1.7752
X6.8424Y-1.8752
X6.9424Y-1.7752
X6.9424Y-1.8752
X7.0424Y-1.7752
X7.0424Y-1.8752
X7.628Y-3.737
X7.6494Y-1.867
X7.728Y-3.737
X7.7494Y-1.867
X7.828Y-3.737
X7.8494Y-1.867
X7.928Y-3.737
X7.9494Y-1.867
T4
X1.295Y-4.685
X1.295Y-4.885
X1.3206Y-1.685
X1.3206Y-1.885
X1.3208Y-3.6857
X1.3208Y-3.8857
X1.325Y-2.805
X1.325Y-3.005
T0
M30
