%TF.GenerationSoftware,KiCad,Pcbnew,(6.0.1)*%
%TF.CreationDate,2026-02-13T09:13:13+05:30*%
%TF.ProjectId,bluetooth-daq-digital-submodule,626c7565-746f-46f7-9468-2d6461712d64,rev?*%
%TF.SameCoordinates,Original*%
%TF.FileFunction,Soldermask,Bot*%
%TF.FilePolarity,Negative*%
%FSLAX46Y46*%
G04 Gerber Fmt 4.6, Leading zero omitted, Abs format (unit mm)*
G04 Created by KiCad (PCBNEW (6.0.1)) date 2026-02-13 09:13:13*
%MOMM*%
%LPD*%
G01*
G04 APERTURE LIST*
G04 Aperture macros list*
%AMRoundRect*
0 Rectangle with rounded corners*
0 $1 Rounding radius*
0 $2 $3 $4 $5 $6 $7 $8 $9 X,Y pos of 4 corners*
0 Add a 4 corners polygon primitive as box body*
4,1,4,$2,$3,$4,$5,$6,$7,$8,$9,$2,$3,0*
0 Add four circle primitives for the rounded corners*
1,1,$1+$1,$2,$3*
1,1,$1+$1,$4,$5*
1,1,$1+$1,$6,$7*
1,1,$1+$1,$8,$9*
0 Add four rect primitives between the rounded corners*
20,1,$1+$1,$2,$3,$4,$5,0*
20,1,$1+$1,$4,$5,$6,$7,0*
20,1,$1+$1,$6,$7,$8,$9,0*
20,1,$1+$1,$8,$9,$2,$3,0*%
G04 Aperture macros list end*
%ADD10R,1.700000X1.700000*%
%ADD11O,1.700000X1.700000*%
%ADD12RoundRect,0.250000X-0.650000X-1.550000X0.650000X-1.550000X0.650000X1.550000X-0.650000X1.550000X0*%
%ADD13O,1.800000X3.600000*%
G04 APERTURE END LIST*
D10*
%TO.C,J4*%
X118379000Y-86111000D03*
D11*
X118379000Y-83571000D03*
X120919000Y-86111000D03*
X120919000Y-83571000D03*
X123459000Y-86111000D03*
X123459000Y-83571000D03*
X125999000Y-86111000D03*
X125999000Y-83571000D03*
X128539000Y-86111000D03*
X128539000Y-83571000D03*
X131079000Y-86111000D03*
X131079000Y-83571000D03*
X133619000Y-86111000D03*
X133619000Y-83571000D03*
X136159000Y-86111000D03*
X136159000Y-83571000D03*
%TD*%
D10*
%TO.C,J1*%
X96007000Y-134381000D03*
D11*
X98547000Y-134381000D03*
X96007000Y-136921000D03*
X98547000Y-136921000D03*
X96007000Y-139461000D03*
X98547000Y-139461000D03*
X96007000Y-142001000D03*
X98547000Y-142001000D03*
X96007000Y-144541000D03*
X98547000Y-144541000D03*
X96007000Y-147081000D03*
X98547000Y-147081000D03*
X96007000Y-149621000D03*
X98547000Y-149621000D03*
X96007000Y-152161000D03*
X98547000Y-152161000D03*
%TD*%
D10*
%TO.C,J3*%
X216149000Y-173497000D03*
D11*
X218689000Y-173497000D03*
X216149000Y-176037000D03*
X218689000Y-176037000D03*
X216149000Y-178577000D03*
X218689000Y-178577000D03*
X216149000Y-181117000D03*
X218689000Y-181117000D03*
X216149000Y-183657000D03*
X218689000Y-183657000D03*
X216149000Y-186197000D03*
X218689000Y-186197000D03*
X216149000Y-188737000D03*
X218689000Y-188737000D03*
X216149000Y-191277000D03*
X218689000Y-191277000D03*
%TD*%
D12*
%TO.C,J5*%
X130319500Y-209022500D03*
D13*
X135399500Y-209022500D03*
%TD*%
D11*
%TO.C,J2*%
X219959000Y-134127000D03*
X217419000Y-134127000D03*
X219959000Y-131587000D03*
X217419000Y-131587000D03*
X219959000Y-129047000D03*
X217419000Y-129047000D03*
X219959000Y-126507000D03*
X217419000Y-126507000D03*
X219959000Y-123967000D03*
X217419000Y-123967000D03*
X219959000Y-121427000D03*
X217419000Y-121427000D03*
X219959000Y-118887000D03*
X217419000Y-118887000D03*
X219959000Y-116347000D03*
D10*
X217419000Y-116347000D03*
%TD*%
M02*
