%TF.GenerationSoftware,KiCad,Pcbnew,(6.0.1)*%
%TF.CreationDate,2026-03-30T07:42:39+05:30*%
%TF.ProjectId,analog_submodule,616e616c-6f67-45f7-9375-626d6f64756c,rev?*%
%TF.SameCoordinates,Original*%
%TF.FileFunction,Soldermask,Bot*%
%TF.FilePolarity,Negative*%
%FSLAX46Y46*%
G04 Gerber Fmt 4.6, Leading zero omitted, Abs format (unit mm)*
G04 Created by KiCad (PCBNEW (6.0.1)) date 2026-03-30 07:42:39*
%MOMM*%
%LPD*%
G01*
G04 APERTURE LIST*
G04 Aperture macros list*
%AMRoundRect*
0 Rectangle with rounded corners*
0 $1 Rounding radius*
0 $2 $3 $4 $5 $6 $7 $8 $9 X,Y pos of 4 corners*
0 Add a 4 corners polygon primitive as box body*
4,1,4,$2,$3,$4,$5,$6,$7,$8,$9,$2,$3,0*
0 Add four circle primitives for the rounded corners*
1,1,$1+$1,$2,$3*
1,1,$1+$1,$4,$5*
1,1,$1+$1,$6,$7*
1,1,$1+$1,$8,$9*
0 Add four rect primitives between the rounded corners*
20,1,$1+$1,$2,$3,$4,$5,0*
20,1,$1+$1,$4,$5,$6,$7,0*
20,1,$1+$1,$6,$7,$8,$9,0*
20,1,$1+$1,$8,$9,$2,$3,0*%
G04 Aperture macros list end*
%ADD10RoundRect,0.250000X-1.550000X0.650000X-1.550000X-0.650000X1.550000X-0.650000X1.550000X0.650000X0*%
%ADD11O,3.600000X1.800000*%
%ADD12R,1.700000X1.700000*%
%ADD13O,1.700000X1.700000*%
%ADD14C,1.440000*%
G04 APERTURE END LIST*
D10*
%TO.C,J1*%
X33544000Y-42799000D03*
D11*
X33544000Y-47879000D03*
%TD*%
D10*
%TO.C,J3*%
X33547500Y-93616500D03*
D11*
X33547500Y-98696500D03*
%TD*%
D12*
%TO.C,J5*%
X104023000Y-47785200D03*
D13*
X104023000Y-45245200D03*
X106563000Y-47785200D03*
X106563000Y-45245200D03*
X109103000Y-47785200D03*
X109103000Y-45245200D03*
X111643000Y-47785200D03*
X111643000Y-45245200D03*
%TD*%
D12*
%TO.C,J9*%
X75539600Y-153314400D03*
D13*
X75539600Y-150774400D03*
X78079600Y-153314400D03*
X78079600Y-150774400D03*
X80619600Y-153314400D03*
X80619600Y-150774400D03*
X83159600Y-153314400D03*
X83159600Y-150774400D03*
X85699600Y-153314400D03*
X85699600Y-150774400D03*
X88239600Y-153314400D03*
X88239600Y-150774400D03*
X90779600Y-153314400D03*
X90779600Y-150774400D03*
X93319600Y-153314400D03*
X93319600Y-150774400D03*
X95859600Y-153314400D03*
X95859600Y-150774400D03*
X98399600Y-153314400D03*
X98399600Y-150774400D03*
%TD*%
D12*
%TO.C,J7*%
X55499000Y-138938000D03*
D13*
X58039000Y-138938000D03*
X55499000Y-141478000D03*
X58039000Y-141478000D03*
X55499000Y-144018000D03*
X58039000Y-144018000D03*
X55499000Y-146558000D03*
X58039000Y-146558000D03*
%TD*%
D12*
%TO.C,J10*%
X194294600Y-47421800D03*
D13*
X196834600Y-47421800D03*
X199374600Y-47421800D03*
X201914600Y-47421800D03*
%TD*%
D12*
%TO.C,J11*%
X193751200Y-94919800D03*
D13*
X196291200Y-94919800D03*
X198831200Y-94919800D03*
X201371200Y-94919800D03*
%TD*%
D10*
%TO.C,J2*%
X33655000Y-71247000D03*
D11*
X33655000Y-76327000D03*
%TD*%
D14*
%TO.C,RV1*%
X128473200Y-121000200D03*
X125933200Y-121000200D03*
X123393200Y-121000200D03*
%TD*%
D12*
%TO.C,J8*%
X171256800Y-47630000D03*
D13*
X171256800Y-45090000D03*
X173796800Y-47630000D03*
X173796800Y-45090000D03*
X176336800Y-47630000D03*
X176336800Y-45090000D03*
X178876800Y-47630000D03*
X178876800Y-45090000D03*
%TD*%
D10*
%TO.C,J4*%
X32893000Y-118999000D03*
D11*
X32893000Y-124079000D03*
%TD*%
D12*
%TO.C,J6*%
X142113000Y-47786800D03*
D13*
X142113000Y-45246800D03*
X144653000Y-47786800D03*
X144653000Y-45246800D03*
X147193000Y-47786800D03*
X147193000Y-45246800D03*
X149733000Y-47786800D03*
X149733000Y-45246800D03*
%TD*%
M02*
