%TF.GenerationSoftware,KiCad,Pcbnew,(6.0.1)*%
%TF.CreationDate,2026-03-30T07:42:38+05:30*%
%TF.ProjectId,analog_submodule,616e616c-6f67-45f7-9375-626d6f64756c,rev?*%
%TF.SameCoordinates,Original*%
%TF.FileFunction,Legend,Top*%
%TF.FilePolarity,Positive*%
%FSLAX46Y46*%
G04 Gerber Fmt 4.6, Leading zero omitted, Abs format (unit mm)*
G04 Created by KiCad (PCBNEW (6.0.1)) date 2026-03-30 07:42:38*
%MOMM*%
%LPD*%
G01*
G04 APERTURE LIST*
%ADD10C,0.150000*%
%ADD11C,0.120000*%
%ADD12C,0.152400*%
G04 APERTURE END LIST*
D10*
%TO.C,R95*%
X102430342Y-113933980D02*
X102097009Y-113457790D01*
X101858914Y-113933980D02*
X101858914Y-112933980D01*
X102239866Y-112933980D01*
X102335104Y-112981600D01*
X102382723Y-113029219D01*
X102430342Y-113124457D01*
X102430342Y-113267314D01*
X102382723Y-113362552D01*
X102335104Y-113410171D01*
X102239866Y-113457790D01*
X101858914Y-113457790D01*
X102906533Y-113933980D02*
X103097009Y-113933980D01*
X103192247Y-113886361D01*
X103239866Y-113838742D01*
X103335104Y-113695885D01*
X103382723Y-113505409D01*
X103382723Y-113124457D01*
X103335104Y-113029219D01*
X103287485Y-112981600D01*
X103192247Y-112933980D01*
X103001771Y-112933980D01*
X102906533Y-112981600D01*
X102858914Y-113029219D01*
X102811295Y-113124457D01*
X102811295Y-113362552D01*
X102858914Y-113457790D01*
X102906533Y-113505409D01*
X103001771Y-113553028D01*
X103192247Y-113553028D01*
X103287485Y-113505409D01*
X103335104Y-113457790D01*
X103382723Y-113362552D01*
X104287485Y-112933980D02*
X103811295Y-112933980D01*
X103763676Y-113410171D01*
X103811295Y-113362552D01*
X103906533Y-113314933D01*
X104144628Y-113314933D01*
X104239866Y-113362552D01*
X104287485Y-113410171D01*
X104335104Y-113505409D01*
X104335104Y-113743504D01*
X104287485Y-113838742D01*
X104239866Y-113886361D01*
X104144628Y-113933980D01*
X103906533Y-113933980D01*
X103811295Y-113886361D01*
X103763676Y-113838742D01*
%TO.C,R111*%
X138784152Y-145538180D02*
X138450819Y-145061990D01*
X138212723Y-145538180D02*
X138212723Y-144538180D01*
X138593676Y-144538180D01*
X138688914Y-144585800D01*
X138736533Y-144633419D01*
X138784152Y-144728657D01*
X138784152Y-144871514D01*
X138736533Y-144966752D01*
X138688914Y-145014371D01*
X138593676Y-145061990D01*
X138212723Y-145061990D01*
X139736533Y-145538180D02*
X139165104Y-145538180D01*
X139450819Y-145538180D02*
X139450819Y-144538180D01*
X139355580Y-144681038D01*
X139260342Y-144776276D01*
X139165104Y-144823895D01*
X140688914Y-145538180D02*
X140117485Y-145538180D01*
X140403200Y-145538180D02*
X140403200Y-144538180D01*
X140307961Y-144681038D01*
X140212723Y-144776276D01*
X140117485Y-144823895D01*
X141641295Y-145538180D02*
X141069866Y-145538180D01*
X141355580Y-145538180D02*
X141355580Y-144538180D01*
X141260342Y-144681038D01*
X141165104Y-144776276D01*
X141069866Y-144823895D01*
%TO.C,R24*%
X66366380Y-129150857D02*
X65890190Y-129484190D01*
X66366380Y-129722285D02*
X65366380Y-129722285D01*
X65366380Y-129341333D01*
X65414000Y-129246095D01*
X65461619Y-129198476D01*
X65556857Y-129150857D01*
X65699714Y-129150857D01*
X65794952Y-129198476D01*
X65842571Y-129246095D01*
X65890190Y-129341333D01*
X65890190Y-129722285D01*
X65461619Y-128769904D02*
X65414000Y-128722285D01*
X65366380Y-128627047D01*
X65366380Y-128388952D01*
X65414000Y-128293714D01*
X65461619Y-128246095D01*
X65556857Y-128198476D01*
X65652095Y-128198476D01*
X65794952Y-128246095D01*
X66366380Y-128817523D01*
X66366380Y-128198476D01*
X65699714Y-127341333D02*
X66366380Y-127341333D01*
X65318761Y-127579428D02*
X66033047Y-127817523D01*
X66033047Y-127198476D01*
%TO.C,U2*%
X106614980Y-77552204D02*
X107424504Y-77552204D01*
X107519742Y-77504585D01*
X107567361Y-77456966D01*
X107614980Y-77361728D01*
X107614980Y-77171252D01*
X107567361Y-77076014D01*
X107519742Y-77028395D01*
X107424504Y-76980776D01*
X106614980Y-76980776D01*
X106710219Y-76552204D02*
X106662600Y-76504585D01*
X106614980Y-76409347D01*
X106614980Y-76171252D01*
X106662600Y-76076014D01*
X106710219Y-76028395D01*
X106805457Y-75980776D01*
X106900695Y-75980776D01*
X107043552Y-76028395D01*
X107614980Y-76599823D01*
X107614980Y-75980776D01*
%TO.C,R22*%
X64332380Y-129277857D02*
X63856190Y-129611190D01*
X64332380Y-129849285D02*
X63332380Y-129849285D01*
X63332380Y-129468333D01*
X63380000Y-129373095D01*
X63427619Y-129325476D01*
X63522857Y-129277857D01*
X63665714Y-129277857D01*
X63760952Y-129325476D01*
X63808571Y-129373095D01*
X63856190Y-129468333D01*
X63856190Y-129849285D01*
X63427619Y-128896904D02*
X63380000Y-128849285D01*
X63332380Y-128754047D01*
X63332380Y-128515952D01*
X63380000Y-128420714D01*
X63427619Y-128373095D01*
X63522857Y-128325476D01*
X63618095Y-128325476D01*
X63760952Y-128373095D01*
X64332380Y-128944523D01*
X64332380Y-128325476D01*
X63427619Y-127944523D02*
X63380000Y-127896904D01*
X63332380Y-127801666D01*
X63332380Y-127563571D01*
X63380000Y-127468333D01*
X63427619Y-127420714D01*
X63522857Y-127373095D01*
X63618095Y-127373095D01*
X63760952Y-127420714D01*
X64332380Y-127992142D01*
X64332380Y-127373095D01*
%TO.C,X1*%
X152423380Y-97964523D02*
X153423380Y-97297857D01*
X152423380Y-97297857D02*
X153423380Y-97964523D01*
X153423380Y-96393095D02*
X153423380Y-96964523D01*
X153423380Y-96678809D02*
X152423380Y-96678809D01*
X152566238Y-96774047D01*
X152661476Y-96869285D01*
X152709095Y-96964523D01*
%TO.C,R3*%
X51268380Y-50966666D02*
X50792190Y-51300000D01*
X51268380Y-51538095D02*
X50268380Y-51538095D01*
X50268380Y-51157142D01*
X50316000Y-51061904D01*
X50363619Y-51014285D01*
X50458857Y-50966666D01*
X50601714Y-50966666D01*
X50696952Y-51014285D01*
X50744571Y-51061904D01*
X50792190Y-51157142D01*
X50792190Y-51538095D01*
X50268380Y-50633333D02*
X50268380Y-50014285D01*
X50649333Y-50347619D01*
X50649333Y-50204761D01*
X50696952Y-50109523D01*
X50744571Y-50061904D01*
X50839809Y-50014285D01*
X51077904Y-50014285D01*
X51173142Y-50061904D01*
X51220761Y-50109523D01*
X51268380Y-50204761D01*
X51268380Y-50490476D01*
X51220761Y-50585714D01*
X51173142Y-50633333D01*
%TO.C,R114*%
X174713680Y-141708047D02*
X174237490Y-142041380D01*
X174713680Y-142279476D02*
X173713680Y-142279476D01*
X173713680Y-141898523D01*
X173761300Y-141803285D01*
X173808919Y-141755666D01*
X173904157Y-141708047D01*
X174047014Y-141708047D01*
X174142252Y-141755666D01*
X174189871Y-141803285D01*
X174237490Y-141898523D01*
X174237490Y-142279476D01*
X174713680Y-140755666D02*
X174713680Y-141327095D01*
X174713680Y-141041380D02*
X173713680Y-141041380D01*
X173856538Y-141136619D01*
X173951776Y-141231857D01*
X173999395Y-141327095D01*
X174713680Y-139803285D02*
X174713680Y-140374714D01*
X174713680Y-140089000D02*
X173713680Y-140089000D01*
X173856538Y-140184238D01*
X173951776Y-140279476D01*
X173999395Y-140374714D01*
X174047014Y-138946142D02*
X174713680Y-138946142D01*
X173666061Y-139184238D02*
X174380347Y-139422333D01*
X174380347Y-138803285D01*
%TO.C,R21*%
X57984380Y-115831857D02*
X57508190Y-116165190D01*
X57984380Y-116403285D02*
X56984380Y-116403285D01*
X56984380Y-116022333D01*
X57032000Y-115927095D01*
X57079619Y-115879476D01*
X57174857Y-115831857D01*
X57317714Y-115831857D01*
X57412952Y-115879476D01*
X57460571Y-115927095D01*
X57508190Y-116022333D01*
X57508190Y-116403285D01*
X57079619Y-115450904D02*
X57032000Y-115403285D01*
X56984380Y-115308047D01*
X56984380Y-115069952D01*
X57032000Y-114974714D01*
X57079619Y-114927095D01*
X57174857Y-114879476D01*
X57270095Y-114879476D01*
X57412952Y-114927095D01*
X57984380Y-115498523D01*
X57984380Y-114879476D01*
X57984380Y-113927095D02*
X57984380Y-114498523D01*
X57984380Y-114212809D02*
X56984380Y-114212809D01*
X57127238Y-114308047D01*
X57222476Y-114403285D01*
X57270095Y-114498523D01*
%TO.C,R104*%
X125698780Y-141218847D02*
X125222590Y-141552180D01*
X125698780Y-141790276D02*
X124698780Y-141790276D01*
X124698780Y-141409323D01*
X124746400Y-141314085D01*
X124794019Y-141266466D01*
X124889257Y-141218847D01*
X125032114Y-141218847D01*
X125127352Y-141266466D01*
X125174971Y-141314085D01*
X125222590Y-141409323D01*
X125222590Y-141790276D01*
X125698780Y-140266466D02*
X125698780Y-140837895D01*
X125698780Y-140552180D02*
X124698780Y-140552180D01*
X124841638Y-140647419D01*
X124936876Y-140742657D01*
X124984495Y-140837895D01*
X124698780Y-139647419D02*
X124698780Y-139552180D01*
X124746400Y-139456942D01*
X124794019Y-139409323D01*
X124889257Y-139361704D01*
X125079733Y-139314085D01*
X125317828Y-139314085D01*
X125508304Y-139361704D01*
X125603542Y-139409323D01*
X125651161Y-139456942D01*
X125698780Y-139552180D01*
X125698780Y-139647419D01*
X125651161Y-139742657D01*
X125603542Y-139790276D01*
X125508304Y-139837895D01*
X125317828Y-139885514D01*
X125079733Y-139885514D01*
X124889257Y-139837895D01*
X124794019Y-139790276D01*
X124746400Y-139742657D01*
X124698780Y-139647419D01*
X125032114Y-138456942D02*
X125698780Y-138456942D01*
X124651161Y-138695038D02*
X125365447Y-138933133D01*
X125365447Y-138314085D01*
%TO.C,R106*%
X119145580Y-151995047D02*
X118669390Y-152328380D01*
X119145580Y-152566476D02*
X118145580Y-152566476D01*
X118145580Y-152185523D01*
X118193200Y-152090285D01*
X118240819Y-152042666D01*
X118336057Y-151995047D01*
X118478914Y-151995047D01*
X118574152Y-152042666D01*
X118621771Y-152090285D01*
X118669390Y-152185523D01*
X118669390Y-152566476D01*
X119145580Y-151042666D02*
X119145580Y-151614095D01*
X119145580Y-151328380D02*
X118145580Y-151328380D01*
X118288438Y-151423619D01*
X118383676Y-151518857D01*
X118431295Y-151614095D01*
X118145580Y-150423619D02*
X118145580Y-150328380D01*
X118193200Y-150233142D01*
X118240819Y-150185523D01*
X118336057Y-150137904D01*
X118526533Y-150090285D01*
X118764628Y-150090285D01*
X118955104Y-150137904D01*
X119050342Y-150185523D01*
X119097961Y-150233142D01*
X119145580Y-150328380D01*
X119145580Y-150423619D01*
X119097961Y-150518857D01*
X119050342Y-150566476D01*
X118955104Y-150614095D01*
X118764628Y-150661714D01*
X118526533Y-150661714D01*
X118336057Y-150614095D01*
X118240819Y-150566476D01*
X118193200Y-150518857D01*
X118145580Y-150423619D01*
X118145580Y-149233142D02*
X118145580Y-149423619D01*
X118193200Y-149518857D01*
X118240819Y-149566476D01*
X118383676Y-149661714D01*
X118574152Y-149709333D01*
X118955104Y-149709333D01*
X119050342Y-149661714D01*
X119097961Y-149614095D01*
X119145580Y-149518857D01*
X119145580Y-149328380D01*
X119097961Y-149233142D01*
X119050342Y-149185523D01*
X118955104Y-149137904D01*
X118717009Y-149137904D01*
X118621771Y-149185523D01*
X118574152Y-149233142D01*
X118526533Y-149328380D01*
X118526533Y-149518857D01*
X118574152Y-149614095D01*
X118621771Y-149661714D01*
X118717009Y-149709333D01*
%TO.C,C10*%
X81132442Y-109555342D02*
X81084823Y-109602961D01*
X80941966Y-109650580D01*
X80846728Y-109650580D01*
X80703871Y-109602961D01*
X80608633Y-109507723D01*
X80561014Y-109412485D01*
X80513395Y-109222009D01*
X80513395Y-109079152D01*
X80561014Y-108888676D01*
X80608633Y-108793438D01*
X80703871Y-108698200D01*
X80846728Y-108650580D01*
X80941966Y-108650580D01*
X81084823Y-108698200D01*
X81132442Y-108745819D01*
X82084823Y-109650580D02*
X81513395Y-109650580D01*
X81799109Y-109650580D02*
X81799109Y-108650580D01*
X81703871Y-108793438D01*
X81608633Y-108888676D01*
X81513395Y-108936295D01*
X82703871Y-108650580D02*
X82799109Y-108650580D01*
X82894347Y-108698200D01*
X82941966Y-108745819D01*
X82989585Y-108841057D01*
X83037204Y-109031533D01*
X83037204Y-109269628D01*
X82989585Y-109460104D01*
X82941966Y-109555342D01*
X82894347Y-109602961D01*
X82799109Y-109650580D01*
X82703871Y-109650580D01*
X82608633Y-109602961D01*
X82561014Y-109555342D01*
X82513395Y-109460104D01*
X82465776Y-109269628D01*
X82465776Y-109031533D01*
X82513395Y-108841057D01*
X82561014Y-108745819D01*
X82608633Y-108698200D01*
X82703871Y-108650580D01*
%TO.C,R2*%
X47093333Y-37154380D02*
X46760000Y-36678190D01*
X46521904Y-37154380D02*
X46521904Y-36154380D01*
X46902857Y-36154380D01*
X46998095Y-36202000D01*
X47045714Y-36249619D01*
X47093333Y-36344857D01*
X47093333Y-36487714D01*
X47045714Y-36582952D01*
X46998095Y-36630571D01*
X46902857Y-36678190D01*
X46521904Y-36678190D01*
X47474285Y-36249619D02*
X47521904Y-36202000D01*
X47617142Y-36154380D01*
X47855238Y-36154380D01*
X47950476Y-36202000D01*
X47998095Y-36249619D01*
X48045714Y-36344857D01*
X48045714Y-36440095D01*
X47998095Y-36582952D01*
X47426666Y-37154380D01*
X48045714Y-37154380D01*
%TO.C,R200*%
X52221380Y-122658047D02*
X51745190Y-122991380D01*
X52221380Y-123229476D02*
X51221380Y-123229476D01*
X51221380Y-122848523D01*
X51269000Y-122753285D01*
X51316619Y-122705666D01*
X51411857Y-122658047D01*
X51554714Y-122658047D01*
X51649952Y-122705666D01*
X51697571Y-122753285D01*
X51745190Y-122848523D01*
X51745190Y-123229476D01*
X51316619Y-122277095D02*
X51269000Y-122229476D01*
X51221380Y-122134238D01*
X51221380Y-121896142D01*
X51269000Y-121800904D01*
X51316619Y-121753285D01*
X51411857Y-121705666D01*
X51507095Y-121705666D01*
X51649952Y-121753285D01*
X52221380Y-122324714D01*
X52221380Y-121705666D01*
X51221380Y-121086619D02*
X51221380Y-120991380D01*
X51269000Y-120896142D01*
X51316619Y-120848523D01*
X51411857Y-120800904D01*
X51602333Y-120753285D01*
X51840428Y-120753285D01*
X52030904Y-120800904D01*
X52126142Y-120848523D01*
X52173761Y-120896142D01*
X52221380Y-120991380D01*
X52221380Y-121086619D01*
X52173761Y-121181857D01*
X52126142Y-121229476D01*
X52030904Y-121277095D01*
X51840428Y-121324714D01*
X51602333Y-121324714D01*
X51411857Y-121277095D01*
X51316619Y-121229476D01*
X51269000Y-121181857D01*
X51221380Y-121086619D01*
X51221380Y-120134238D02*
X51221380Y-120039000D01*
X51269000Y-119943761D01*
X51316619Y-119896142D01*
X51411857Y-119848523D01*
X51602333Y-119800904D01*
X51840428Y-119800904D01*
X52030904Y-119848523D01*
X52126142Y-119896142D01*
X52173761Y-119943761D01*
X52221380Y-120039000D01*
X52221380Y-120134238D01*
X52173761Y-120229476D01*
X52126142Y-120277095D01*
X52030904Y-120324714D01*
X51840428Y-120372333D01*
X51602333Y-120372333D01*
X51411857Y-120324714D01*
X51316619Y-120277095D01*
X51269000Y-120229476D01*
X51221380Y-120134238D01*
%TO.C,J1*%
X38546380Y-45672333D02*
X39260666Y-45672333D01*
X39403523Y-45719952D01*
X39498761Y-45815190D01*
X39546380Y-45958047D01*
X39546380Y-46053285D01*
X39546380Y-44672333D02*
X39546380Y-45243761D01*
X39546380Y-44958047D02*
X38546380Y-44958047D01*
X38689238Y-45053285D01*
X38784476Y-45148523D01*
X38832095Y-45243761D01*
%TO.C,U1*%
X41529095Y-136303380D02*
X41529095Y-137112904D01*
X41576714Y-137208142D01*
X41624333Y-137255761D01*
X41719571Y-137303380D01*
X41910047Y-137303380D01*
X42005285Y-137255761D01*
X42052904Y-137208142D01*
X42100523Y-137112904D01*
X42100523Y-136303380D01*
X43100523Y-137303380D02*
X42529095Y-137303380D01*
X42814809Y-137303380D02*
X42814809Y-136303380D01*
X42719571Y-136446238D01*
X42624333Y-136541476D01*
X42529095Y-136589095D01*
%TO.C,C51*%
X206748142Y-71067142D02*
X206700523Y-71114761D01*
X206557666Y-71162380D01*
X206462428Y-71162380D01*
X206319571Y-71114761D01*
X206224333Y-71019523D01*
X206176714Y-70924285D01*
X206129095Y-70733809D01*
X206129095Y-70590952D01*
X206176714Y-70400476D01*
X206224333Y-70305238D01*
X206319571Y-70210000D01*
X206462428Y-70162380D01*
X206557666Y-70162380D01*
X206700523Y-70210000D01*
X206748142Y-70257619D01*
X207652904Y-70162380D02*
X207176714Y-70162380D01*
X207129095Y-70638571D01*
X207176714Y-70590952D01*
X207271952Y-70543333D01*
X207510047Y-70543333D01*
X207605285Y-70590952D01*
X207652904Y-70638571D01*
X207700523Y-70733809D01*
X207700523Y-70971904D01*
X207652904Y-71067142D01*
X207605285Y-71114761D01*
X207510047Y-71162380D01*
X207271952Y-71162380D01*
X207176714Y-71114761D01*
X207129095Y-71067142D01*
X208652904Y-71162380D02*
X208081476Y-71162380D01*
X208367190Y-71162380D02*
X208367190Y-70162380D01*
X208271952Y-70305238D01*
X208176714Y-70400476D01*
X208081476Y-70448095D01*
%TO.C,R4*%
X51777380Y-40298666D02*
X51301190Y-40632000D01*
X51777380Y-40870095D02*
X50777380Y-40870095D01*
X50777380Y-40489142D01*
X50825000Y-40393904D01*
X50872619Y-40346285D01*
X50967857Y-40298666D01*
X51110714Y-40298666D01*
X51205952Y-40346285D01*
X51253571Y-40393904D01*
X51301190Y-40489142D01*
X51301190Y-40870095D01*
X51110714Y-39441523D02*
X51777380Y-39441523D01*
X50729761Y-39679619D02*
X51444047Y-39917714D01*
X51444047Y-39298666D01*
%TO.C,R12*%
X61919380Y-68571857D02*
X61443190Y-68905190D01*
X61919380Y-69143285D02*
X60919380Y-69143285D01*
X60919380Y-68762333D01*
X60967000Y-68667095D01*
X61014619Y-68619476D01*
X61109857Y-68571857D01*
X61252714Y-68571857D01*
X61347952Y-68619476D01*
X61395571Y-68667095D01*
X61443190Y-68762333D01*
X61443190Y-69143285D01*
X61919380Y-67619476D02*
X61919380Y-68190904D01*
X61919380Y-67905190D02*
X60919380Y-67905190D01*
X61062238Y-68000428D01*
X61157476Y-68095666D01*
X61205095Y-68190904D01*
X61014619Y-67238523D02*
X60967000Y-67190904D01*
X60919380Y-67095666D01*
X60919380Y-66857571D01*
X60967000Y-66762333D01*
X61014619Y-66714714D01*
X61109857Y-66667095D01*
X61205095Y-66667095D01*
X61347952Y-66714714D01*
X61919380Y-67286142D01*
X61919380Y-66667095D01*
%TO.C,R6*%
X60411380Y-40298666D02*
X59935190Y-40632000D01*
X60411380Y-40870095D02*
X59411380Y-40870095D01*
X59411380Y-40489142D01*
X59459000Y-40393904D01*
X59506619Y-40346285D01*
X59601857Y-40298666D01*
X59744714Y-40298666D01*
X59839952Y-40346285D01*
X59887571Y-40393904D01*
X59935190Y-40489142D01*
X59935190Y-40870095D01*
X59411380Y-39441523D02*
X59411380Y-39632000D01*
X59459000Y-39727238D01*
X59506619Y-39774857D01*
X59649476Y-39870095D01*
X59839952Y-39917714D01*
X60220904Y-39917714D01*
X60316142Y-39870095D01*
X60363761Y-39822476D01*
X60411380Y-39727238D01*
X60411380Y-39536761D01*
X60363761Y-39441523D01*
X60316142Y-39393904D01*
X60220904Y-39346285D01*
X59982809Y-39346285D01*
X59887571Y-39393904D01*
X59839952Y-39441523D01*
X59792333Y-39536761D01*
X59792333Y-39727238D01*
X59839952Y-39822476D01*
X59887571Y-39870095D01*
X59982809Y-39917714D01*
%TO.C,R5*%
X57111380Y-50966666D02*
X56635190Y-51300000D01*
X57111380Y-51538095D02*
X56111380Y-51538095D01*
X56111380Y-51157142D01*
X56159000Y-51061904D01*
X56206619Y-51014285D01*
X56301857Y-50966666D01*
X56444714Y-50966666D01*
X56539952Y-51014285D01*
X56587571Y-51061904D01*
X56635190Y-51157142D01*
X56635190Y-51538095D01*
X56111380Y-50061904D02*
X56111380Y-50538095D01*
X56587571Y-50585714D01*
X56539952Y-50538095D01*
X56492333Y-50442857D01*
X56492333Y-50204761D01*
X56539952Y-50109523D01*
X56587571Y-50061904D01*
X56682809Y-50014285D01*
X56920904Y-50014285D01*
X57016142Y-50061904D01*
X57063761Y-50109523D01*
X57111380Y-50204761D01*
X57111380Y-50442857D01*
X57063761Y-50538095D01*
X57016142Y-50585714D01*
%TO.C,J3*%
X38549880Y-96489833D02*
X39264166Y-96489833D01*
X39407023Y-96537452D01*
X39502261Y-96632690D01*
X39549880Y-96775547D01*
X39549880Y-96870785D01*
X38549880Y-96108880D02*
X38549880Y-95489833D01*
X38930833Y-95823166D01*
X38930833Y-95680309D01*
X38978452Y-95585071D01*
X39026071Y-95537452D01*
X39121309Y-95489833D01*
X39359404Y-95489833D01*
X39454642Y-95537452D01*
X39502261Y-95585071D01*
X39549880Y-95680309D01*
X39549880Y-95966023D01*
X39502261Y-96061261D01*
X39454642Y-96108880D01*
%TO.C,Q4*%
X180771061Y-144502419D02*
X180675823Y-144454800D01*
X180580585Y-144359561D01*
X180437728Y-144216704D01*
X180342490Y-144169085D01*
X180247252Y-144169085D01*
X180294871Y-144407180D02*
X180199633Y-144359561D01*
X180104395Y-144264323D01*
X180056776Y-144073847D01*
X180056776Y-143740514D01*
X180104395Y-143550038D01*
X180199633Y-143454800D01*
X180294871Y-143407180D01*
X180485347Y-143407180D01*
X180580585Y-143454800D01*
X180675823Y-143550038D01*
X180723442Y-143740514D01*
X180723442Y-144073847D01*
X180675823Y-144264323D01*
X180580585Y-144359561D01*
X180485347Y-144407180D01*
X180294871Y-144407180D01*
X181580585Y-143740514D02*
X181580585Y-144407180D01*
X181342490Y-143359561D02*
X181104395Y-144073847D01*
X181723442Y-144073847D01*
%TO.C,C50*%
X187219442Y-71067142D02*
X187171823Y-71114761D01*
X187028966Y-71162380D01*
X186933728Y-71162380D01*
X186790871Y-71114761D01*
X186695633Y-71019523D01*
X186648014Y-70924285D01*
X186600395Y-70733809D01*
X186600395Y-70590952D01*
X186648014Y-70400476D01*
X186695633Y-70305238D01*
X186790871Y-70210000D01*
X186933728Y-70162380D01*
X187028966Y-70162380D01*
X187171823Y-70210000D01*
X187219442Y-70257619D01*
X188124204Y-70162380D02*
X187648014Y-70162380D01*
X187600395Y-70638571D01*
X187648014Y-70590952D01*
X187743252Y-70543333D01*
X187981347Y-70543333D01*
X188076585Y-70590952D01*
X188124204Y-70638571D01*
X188171823Y-70733809D01*
X188171823Y-70971904D01*
X188124204Y-71067142D01*
X188076585Y-71114761D01*
X187981347Y-71162380D01*
X187743252Y-71162380D01*
X187648014Y-71114761D01*
X187600395Y-71067142D01*
X188790871Y-70162380D02*
X188886109Y-70162380D01*
X188981347Y-70210000D01*
X189028966Y-70257619D01*
X189076585Y-70352857D01*
X189124204Y-70543333D01*
X189124204Y-70781428D01*
X189076585Y-70971904D01*
X189028966Y-71067142D01*
X188981347Y-71114761D01*
X188886109Y-71162380D01*
X188790871Y-71162380D01*
X188695633Y-71114761D01*
X188648014Y-71067142D01*
X188600395Y-70971904D01*
X188552776Y-70781428D01*
X188552776Y-70543333D01*
X188600395Y-70352857D01*
X188648014Y-70257619D01*
X188695633Y-70210000D01*
X188790871Y-70162380D01*
%TO.C,U9*%
X128988780Y-150190104D02*
X129798304Y-150190104D01*
X129893542Y-150142485D01*
X129941161Y-150094866D01*
X129988780Y-149999628D01*
X129988780Y-149809152D01*
X129941161Y-149713914D01*
X129893542Y-149666295D01*
X129798304Y-149618676D01*
X128988780Y-149618676D01*
X129988780Y-149094866D02*
X129988780Y-148904390D01*
X129941161Y-148809152D01*
X129893542Y-148761533D01*
X129750685Y-148666295D01*
X129560209Y-148618676D01*
X129179257Y-148618676D01*
X129084019Y-148666295D01*
X129036400Y-148713914D01*
X128988780Y-148809152D01*
X128988780Y-148999628D01*
X129036400Y-149094866D01*
X129084019Y-149142485D01*
X129179257Y-149190104D01*
X129417352Y-149190104D01*
X129512590Y-149142485D01*
X129560209Y-149094866D01*
X129607828Y-148999628D01*
X129607828Y-148809152D01*
X129560209Y-148713914D01*
X129512590Y-148666295D01*
X129417352Y-148618676D01*
%TO.C,R105*%
X136442980Y-144019447D02*
X135966790Y-144352780D01*
X136442980Y-144590876D02*
X135442980Y-144590876D01*
X135442980Y-144209923D01*
X135490600Y-144114685D01*
X135538219Y-144067066D01*
X135633457Y-144019447D01*
X135776314Y-144019447D01*
X135871552Y-144067066D01*
X135919171Y-144114685D01*
X135966790Y-144209923D01*
X135966790Y-144590876D01*
X136442980Y-143067066D02*
X136442980Y-143638495D01*
X136442980Y-143352780D02*
X135442980Y-143352780D01*
X135585838Y-143448019D01*
X135681076Y-143543257D01*
X135728695Y-143638495D01*
X135442980Y-142448019D02*
X135442980Y-142352780D01*
X135490600Y-142257542D01*
X135538219Y-142209923D01*
X135633457Y-142162304D01*
X135823933Y-142114685D01*
X136062028Y-142114685D01*
X136252504Y-142162304D01*
X136347742Y-142209923D01*
X136395361Y-142257542D01*
X136442980Y-142352780D01*
X136442980Y-142448019D01*
X136395361Y-142543257D01*
X136347742Y-142590876D01*
X136252504Y-142638495D01*
X136062028Y-142686114D01*
X135823933Y-142686114D01*
X135633457Y-142638495D01*
X135538219Y-142590876D01*
X135490600Y-142543257D01*
X135442980Y-142448019D01*
X135442980Y-141209923D02*
X135442980Y-141686114D01*
X135919171Y-141733733D01*
X135871552Y-141686114D01*
X135823933Y-141590876D01*
X135823933Y-141352780D01*
X135871552Y-141257542D01*
X135919171Y-141209923D01*
X136014409Y-141162304D01*
X136252504Y-141162304D01*
X136347742Y-141209923D01*
X136395361Y-141257542D01*
X136442980Y-141352780D01*
X136442980Y-141590876D01*
X136395361Y-141686114D01*
X136347742Y-141733733D01*
%TO.C,Q2*%
X166263061Y-144512619D02*
X166167823Y-144465000D01*
X166072585Y-144369761D01*
X165929728Y-144226904D01*
X165834490Y-144179285D01*
X165739252Y-144179285D01*
X165786871Y-144417380D02*
X165691633Y-144369761D01*
X165596395Y-144274523D01*
X165548776Y-144084047D01*
X165548776Y-143750714D01*
X165596395Y-143560238D01*
X165691633Y-143465000D01*
X165786871Y-143417380D01*
X165977347Y-143417380D01*
X166072585Y-143465000D01*
X166167823Y-143560238D01*
X166215442Y-143750714D01*
X166215442Y-144084047D01*
X166167823Y-144274523D01*
X166072585Y-144369761D01*
X165977347Y-144417380D01*
X165786871Y-144417380D01*
X166596395Y-143512619D02*
X166644014Y-143465000D01*
X166739252Y-143417380D01*
X166977347Y-143417380D01*
X167072585Y-143465000D01*
X167120204Y-143512619D01*
X167167823Y-143607857D01*
X167167823Y-143703095D01*
X167120204Y-143845952D01*
X166548776Y-144417380D01*
X167167823Y-144417380D01*
%TO.C,J5*%
X101145380Y-46848533D02*
X101859666Y-46848533D01*
X102002523Y-46896152D01*
X102097761Y-46991390D01*
X102145380Y-47134247D01*
X102145380Y-47229485D01*
X101145380Y-45896152D02*
X101145380Y-46372342D01*
X101621571Y-46419961D01*
X101573952Y-46372342D01*
X101526333Y-46277104D01*
X101526333Y-46039009D01*
X101573952Y-45943771D01*
X101621571Y-45896152D01*
X101716809Y-45848533D01*
X101954904Y-45848533D01*
X102050142Y-45896152D01*
X102097761Y-45943771D01*
X102145380Y-46039009D01*
X102145380Y-46277104D01*
X102097761Y-46372342D01*
X102050142Y-46419961D01*
%TO.C,R113*%
X167523180Y-141758847D02*
X167046990Y-142092180D01*
X167523180Y-142330276D02*
X166523180Y-142330276D01*
X166523180Y-141949323D01*
X166570800Y-141854085D01*
X166618419Y-141806466D01*
X166713657Y-141758847D01*
X166856514Y-141758847D01*
X166951752Y-141806466D01*
X166999371Y-141854085D01*
X167046990Y-141949323D01*
X167046990Y-142330276D01*
X167523180Y-140806466D02*
X167523180Y-141377895D01*
X167523180Y-141092180D02*
X166523180Y-141092180D01*
X166666038Y-141187419D01*
X166761276Y-141282657D01*
X166808895Y-141377895D01*
X167523180Y-139854085D02*
X167523180Y-140425514D01*
X167523180Y-140139800D02*
X166523180Y-140139800D01*
X166666038Y-140235038D01*
X166761276Y-140330276D01*
X166808895Y-140425514D01*
X166523180Y-139520752D02*
X166523180Y-138901704D01*
X166904133Y-139235038D01*
X166904133Y-139092180D01*
X166951752Y-138996942D01*
X166999371Y-138949323D01*
X167094609Y-138901704D01*
X167332704Y-138901704D01*
X167427942Y-138949323D01*
X167475561Y-138996942D01*
X167523180Y-139092180D01*
X167523180Y-139377895D01*
X167475561Y-139473133D01*
X167427942Y-139520752D01*
%TO.C,R10*%
X52904380Y-68587857D02*
X52428190Y-68921190D01*
X52904380Y-69159285D02*
X51904380Y-69159285D01*
X51904380Y-68778333D01*
X51952000Y-68683095D01*
X51999619Y-68635476D01*
X52094857Y-68587857D01*
X52237714Y-68587857D01*
X52332952Y-68635476D01*
X52380571Y-68683095D01*
X52428190Y-68778333D01*
X52428190Y-69159285D01*
X52904380Y-67635476D02*
X52904380Y-68206904D01*
X52904380Y-67921190D02*
X51904380Y-67921190D01*
X52047238Y-68016428D01*
X52142476Y-68111666D01*
X52190095Y-68206904D01*
X51904380Y-67016428D02*
X51904380Y-66921190D01*
X51952000Y-66825952D01*
X51999619Y-66778333D01*
X52094857Y-66730714D01*
X52285333Y-66683095D01*
X52523428Y-66683095D01*
X52713904Y-66730714D01*
X52809142Y-66778333D01*
X52856761Y-66825952D01*
X52904380Y-66921190D01*
X52904380Y-67016428D01*
X52856761Y-67111666D01*
X52809142Y-67159285D01*
X52713904Y-67206904D01*
X52523428Y-67254523D01*
X52285333Y-67254523D01*
X52094857Y-67206904D01*
X51999619Y-67159285D01*
X51952000Y-67111666D01*
X51904380Y-67016428D01*
%TO.C,U3*%
X143394180Y-77825504D02*
X144203704Y-77825504D01*
X144298942Y-77777885D01*
X144346561Y-77730266D01*
X144394180Y-77635028D01*
X144394180Y-77444552D01*
X144346561Y-77349314D01*
X144298942Y-77301695D01*
X144203704Y-77254076D01*
X143394180Y-77254076D01*
X143394180Y-76873123D02*
X143394180Y-76254076D01*
X143775133Y-76587409D01*
X143775133Y-76444552D01*
X143822752Y-76349314D01*
X143870371Y-76301695D01*
X143965609Y-76254076D01*
X144203704Y-76254076D01*
X144298942Y-76301695D01*
X144346561Y-76349314D01*
X144394180Y-76444552D01*
X144394180Y-76730266D01*
X144346561Y-76825504D01*
X144298942Y-76873123D01*
%TO.C,R13*%
X52221380Y-96908857D02*
X51745190Y-97242190D01*
X52221380Y-97480285D02*
X51221380Y-97480285D01*
X51221380Y-97099333D01*
X51269000Y-97004095D01*
X51316619Y-96956476D01*
X51411857Y-96908857D01*
X51554714Y-96908857D01*
X51649952Y-96956476D01*
X51697571Y-97004095D01*
X51745190Y-97099333D01*
X51745190Y-97480285D01*
X52221380Y-95956476D02*
X52221380Y-96527904D01*
X52221380Y-96242190D02*
X51221380Y-96242190D01*
X51364238Y-96337428D01*
X51459476Y-96432666D01*
X51507095Y-96527904D01*
X51221380Y-95623142D02*
X51221380Y-95004095D01*
X51602333Y-95337428D01*
X51602333Y-95194571D01*
X51649952Y-95099333D01*
X51697571Y-95051714D01*
X51792809Y-95004095D01*
X52030904Y-95004095D01*
X52126142Y-95051714D01*
X52173761Y-95099333D01*
X52221380Y-95194571D01*
X52221380Y-95480285D01*
X52173761Y-95575523D01*
X52126142Y-95623142D01*
%TO.C,R23*%
X64841380Y-115926857D02*
X64365190Y-116260190D01*
X64841380Y-116498285D02*
X63841380Y-116498285D01*
X63841380Y-116117333D01*
X63889000Y-116022095D01*
X63936619Y-115974476D01*
X64031857Y-115926857D01*
X64174714Y-115926857D01*
X64269952Y-115974476D01*
X64317571Y-116022095D01*
X64365190Y-116117333D01*
X64365190Y-116498285D01*
X63936619Y-115545904D02*
X63889000Y-115498285D01*
X63841380Y-115403047D01*
X63841380Y-115164952D01*
X63889000Y-115069714D01*
X63936619Y-115022095D01*
X64031857Y-114974476D01*
X64127095Y-114974476D01*
X64269952Y-115022095D01*
X64841380Y-115593523D01*
X64841380Y-114974476D01*
X63841380Y-114641142D02*
X63841380Y-114022095D01*
X64222333Y-114355428D01*
X64222333Y-114212571D01*
X64269952Y-114117333D01*
X64317571Y-114069714D01*
X64412809Y-114022095D01*
X64650904Y-114022095D01*
X64746142Y-114069714D01*
X64793761Y-114117333D01*
X64841380Y-114212571D01*
X64841380Y-114498285D01*
X64793761Y-114593523D01*
X64746142Y-114641142D01*
%TO.C,R115*%
X178728880Y-141708047D02*
X178252690Y-142041380D01*
X178728880Y-142279476D02*
X177728880Y-142279476D01*
X177728880Y-141898523D01*
X177776500Y-141803285D01*
X177824119Y-141755666D01*
X177919357Y-141708047D01*
X178062214Y-141708047D01*
X178157452Y-141755666D01*
X178205071Y-141803285D01*
X178252690Y-141898523D01*
X178252690Y-142279476D01*
X178728880Y-140755666D02*
X178728880Y-141327095D01*
X178728880Y-141041380D02*
X177728880Y-141041380D01*
X177871738Y-141136619D01*
X177966976Y-141231857D01*
X178014595Y-141327095D01*
X178728880Y-139803285D02*
X178728880Y-140374714D01*
X178728880Y-140089000D02*
X177728880Y-140089000D01*
X177871738Y-140184238D01*
X177966976Y-140279476D01*
X178014595Y-140374714D01*
X177728880Y-138898523D02*
X177728880Y-139374714D01*
X178205071Y-139422333D01*
X178157452Y-139374714D01*
X178109833Y-139279476D01*
X178109833Y-139041380D01*
X178157452Y-138946142D01*
X178205071Y-138898523D01*
X178300309Y-138850904D01*
X178538404Y-138850904D01*
X178633642Y-138898523D01*
X178681261Y-138946142D01*
X178728880Y-139041380D01*
X178728880Y-139279476D01*
X178681261Y-139374714D01*
X178633642Y-139422333D01*
%TO.C,R112*%
X161223980Y-141657247D02*
X160747790Y-141990580D01*
X161223980Y-142228676D02*
X160223980Y-142228676D01*
X160223980Y-141847723D01*
X160271600Y-141752485D01*
X160319219Y-141704866D01*
X160414457Y-141657247D01*
X160557314Y-141657247D01*
X160652552Y-141704866D01*
X160700171Y-141752485D01*
X160747790Y-141847723D01*
X160747790Y-142228676D01*
X161223980Y-140704866D02*
X161223980Y-141276295D01*
X161223980Y-140990580D02*
X160223980Y-140990580D01*
X160366838Y-141085819D01*
X160462076Y-141181057D01*
X160509695Y-141276295D01*
X161223980Y-139752485D02*
X161223980Y-140323914D01*
X161223980Y-140038200D02*
X160223980Y-140038200D01*
X160366838Y-140133438D01*
X160462076Y-140228676D01*
X160509695Y-140323914D01*
X160319219Y-139371533D02*
X160271600Y-139323914D01*
X160223980Y-139228676D01*
X160223980Y-138990580D01*
X160271600Y-138895342D01*
X160319219Y-138847723D01*
X160414457Y-138800104D01*
X160509695Y-138800104D01*
X160652552Y-138847723D01*
X161223980Y-139419152D01*
X161223980Y-138800104D01*
%TO.C,C19*%
X125125542Y-107443257D02*
X125173161Y-107490876D01*
X125220780Y-107633733D01*
X125220780Y-107728971D01*
X125173161Y-107871828D01*
X125077923Y-107967066D01*
X124982685Y-108014685D01*
X124792209Y-108062304D01*
X124649352Y-108062304D01*
X124458876Y-108014685D01*
X124363638Y-107967066D01*
X124268400Y-107871828D01*
X124220780Y-107728971D01*
X124220780Y-107633733D01*
X124268400Y-107490876D01*
X124316019Y-107443257D01*
X125220780Y-106490876D02*
X125220780Y-107062304D01*
X125220780Y-106776590D02*
X124220780Y-106776590D01*
X124363638Y-106871828D01*
X124458876Y-106967066D01*
X124506495Y-107062304D01*
X125220780Y-106014685D02*
X125220780Y-105824209D01*
X125173161Y-105728971D01*
X125125542Y-105681352D01*
X124982685Y-105586114D01*
X124792209Y-105538495D01*
X124411257Y-105538495D01*
X124316019Y-105586114D01*
X124268400Y-105633733D01*
X124220780Y-105728971D01*
X124220780Y-105919447D01*
X124268400Y-106014685D01*
X124316019Y-106062304D01*
X124411257Y-106109923D01*
X124649352Y-106109923D01*
X124744590Y-106062304D01*
X124792209Y-106014685D01*
X124839828Y-105919447D01*
X124839828Y-105728971D01*
X124792209Y-105633733D01*
X124744590Y-105586114D01*
X124649352Y-105538495D01*
%TO.C,R20*%
X57857380Y-129166857D02*
X57381190Y-129500190D01*
X57857380Y-129738285D02*
X56857380Y-129738285D01*
X56857380Y-129357333D01*
X56905000Y-129262095D01*
X56952619Y-129214476D01*
X57047857Y-129166857D01*
X57190714Y-129166857D01*
X57285952Y-129214476D01*
X57333571Y-129262095D01*
X57381190Y-129357333D01*
X57381190Y-129738285D01*
X56952619Y-128785904D02*
X56905000Y-128738285D01*
X56857380Y-128643047D01*
X56857380Y-128404952D01*
X56905000Y-128309714D01*
X56952619Y-128262095D01*
X57047857Y-128214476D01*
X57143095Y-128214476D01*
X57285952Y-128262095D01*
X57857380Y-128833523D01*
X57857380Y-128214476D01*
X56857380Y-127595428D02*
X56857380Y-127500190D01*
X56905000Y-127404952D01*
X56952619Y-127357333D01*
X57047857Y-127309714D01*
X57238333Y-127262095D01*
X57476428Y-127262095D01*
X57666904Y-127309714D01*
X57762142Y-127357333D01*
X57809761Y-127404952D01*
X57857380Y-127500190D01*
X57857380Y-127595428D01*
X57809761Y-127690666D01*
X57762142Y-127738285D01*
X57666904Y-127785904D01*
X57476428Y-127833523D01*
X57238333Y-127833523D01*
X57047857Y-127785904D01*
X56952619Y-127738285D01*
X56905000Y-127690666D01*
X56857380Y-127595428D01*
%TO.C,J9*%
X72661980Y-152377733D02*
X73376266Y-152377733D01*
X73519123Y-152425352D01*
X73614361Y-152520590D01*
X73661980Y-152663447D01*
X73661980Y-152758685D01*
X73661980Y-151853923D02*
X73661980Y-151663447D01*
X73614361Y-151568209D01*
X73566742Y-151520590D01*
X73423885Y-151425352D01*
X73233409Y-151377733D01*
X72852457Y-151377733D01*
X72757219Y-151425352D01*
X72709600Y-151472971D01*
X72661980Y-151568209D01*
X72661980Y-151758685D01*
X72709600Y-151853923D01*
X72757219Y-151901542D01*
X72852457Y-151949161D01*
X73090552Y-151949161D01*
X73185790Y-151901542D01*
X73233409Y-151853923D01*
X73281028Y-151758685D01*
X73281028Y-151568209D01*
X73233409Y-151472971D01*
X73185790Y-151425352D01*
X73090552Y-151377733D01*
%TO.C,R97*%
X121454942Y-114010180D02*
X121121609Y-113533990D01*
X120883514Y-114010180D02*
X120883514Y-113010180D01*
X121264466Y-113010180D01*
X121359704Y-113057800D01*
X121407323Y-113105419D01*
X121454942Y-113200657D01*
X121454942Y-113343514D01*
X121407323Y-113438752D01*
X121359704Y-113486371D01*
X121264466Y-113533990D01*
X120883514Y-113533990D01*
X121931133Y-114010180D02*
X122121609Y-114010180D01*
X122216847Y-113962561D01*
X122264466Y-113914942D01*
X122359704Y-113772085D01*
X122407323Y-113581609D01*
X122407323Y-113200657D01*
X122359704Y-113105419D01*
X122312085Y-113057800D01*
X122216847Y-113010180D01*
X122026371Y-113010180D01*
X121931133Y-113057800D01*
X121883514Y-113105419D01*
X121835895Y-113200657D01*
X121835895Y-113438752D01*
X121883514Y-113533990D01*
X121931133Y-113581609D01*
X122026371Y-113629228D01*
X122216847Y-113629228D01*
X122312085Y-113581609D01*
X122359704Y-113533990D01*
X122407323Y-113438752D01*
X122740657Y-113010180D02*
X123407323Y-113010180D01*
X122978752Y-114010180D01*
%TO.C,C14*%
X81259442Y-65359342D02*
X81211823Y-65406961D01*
X81068966Y-65454580D01*
X80973728Y-65454580D01*
X80830871Y-65406961D01*
X80735633Y-65311723D01*
X80688014Y-65216485D01*
X80640395Y-65026009D01*
X80640395Y-64883152D01*
X80688014Y-64692676D01*
X80735633Y-64597438D01*
X80830871Y-64502200D01*
X80973728Y-64454580D01*
X81068966Y-64454580D01*
X81211823Y-64502200D01*
X81259442Y-64549819D01*
X82211823Y-65454580D02*
X81640395Y-65454580D01*
X81926109Y-65454580D02*
X81926109Y-64454580D01*
X81830871Y-64597438D01*
X81735633Y-64692676D01*
X81640395Y-64740295D01*
X83068966Y-64787914D02*
X83068966Y-65454580D01*
X82830871Y-64406961D02*
X82592776Y-65121247D01*
X83211823Y-65121247D01*
%TO.C,R15*%
X57349380Y-89923857D02*
X56873190Y-90257190D01*
X57349380Y-90495285D02*
X56349380Y-90495285D01*
X56349380Y-90114333D01*
X56397000Y-90019095D01*
X56444619Y-89971476D01*
X56539857Y-89923857D01*
X56682714Y-89923857D01*
X56777952Y-89971476D01*
X56825571Y-90019095D01*
X56873190Y-90114333D01*
X56873190Y-90495285D01*
X57349380Y-88971476D02*
X57349380Y-89542904D01*
X57349380Y-89257190D02*
X56349380Y-89257190D01*
X56492238Y-89352428D01*
X56587476Y-89447666D01*
X56635095Y-89542904D01*
X56349380Y-88066714D02*
X56349380Y-88542904D01*
X56825571Y-88590523D01*
X56777952Y-88542904D01*
X56730333Y-88447666D01*
X56730333Y-88209571D01*
X56777952Y-88114333D01*
X56825571Y-88066714D01*
X56920809Y-88019095D01*
X57158904Y-88019095D01*
X57254142Y-88066714D01*
X57301761Y-88114333D01*
X57349380Y-88209571D01*
X57349380Y-88447666D01*
X57301761Y-88542904D01*
X57254142Y-88590523D01*
%TO.C,R109*%
X172353552Y-153232380D02*
X172020219Y-152756190D01*
X171782123Y-153232380D02*
X171782123Y-152232380D01*
X172163076Y-152232380D01*
X172258314Y-152280000D01*
X172305933Y-152327619D01*
X172353552Y-152422857D01*
X172353552Y-152565714D01*
X172305933Y-152660952D01*
X172258314Y-152708571D01*
X172163076Y-152756190D01*
X171782123Y-152756190D01*
X173305933Y-153232380D02*
X172734504Y-153232380D01*
X173020219Y-153232380D02*
X173020219Y-152232380D01*
X172924980Y-152375238D01*
X172829742Y-152470476D01*
X172734504Y-152518095D01*
X173924980Y-152232380D02*
X174020219Y-152232380D01*
X174115457Y-152280000D01*
X174163076Y-152327619D01*
X174210695Y-152422857D01*
X174258314Y-152613333D01*
X174258314Y-152851428D01*
X174210695Y-153041904D01*
X174163076Y-153137142D01*
X174115457Y-153184761D01*
X174020219Y-153232380D01*
X173924980Y-153232380D01*
X173829742Y-153184761D01*
X173782123Y-153137142D01*
X173734504Y-153041904D01*
X173686885Y-152851428D01*
X173686885Y-152613333D01*
X173734504Y-152422857D01*
X173782123Y-152327619D01*
X173829742Y-152280000D01*
X173924980Y-152232380D01*
X174734504Y-153232380D02*
X174924980Y-153232380D01*
X175020219Y-153184761D01*
X175067838Y-153137142D01*
X175163076Y-152994285D01*
X175210695Y-152803809D01*
X175210695Y-152422857D01*
X175163076Y-152327619D01*
X175115457Y-152280000D01*
X175020219Y-152232380D01*
X174829742Y-152232380D01*
X174734504Y-152280000D01*
X174686885Y-152327619D01*
X174639266Y-152422857D01*
X174639266Y-152660952D01*
X174686885Y-152756190D01*
X174734504Y-152803809D01*
X174829742Y-152851428D01*
X175020219Y-152851428D01*
X175115457Y-152803809D01*
X175163076Y-152756190D01*
X175210695Y-152660952D01*
%TO.C,J7*%
X56435666Y-136060380D02*
X56435666Y-136774666D01*
X56388047Y-136917523D01*
X56292809Y-137012761D01*
X56149952Y-137060380D01*
X56054714Y-137060380D01*
X56816619Y-136060380D02*
X57483285Y-136060380D01*
X57054714Y-137060380D01*
%TO.C,C28*%
X130249142Y-135459457D02*
X130296761Y-135507076D01*
X130344380Y-135649933D01*
X130344380Y-135745171D01*
X130296761Y-135888028D01*
X130201523Y-135983266D01*
X130106285Y-136030885D01*
X129915809Y-136078504D01*
X129772952Y-136078504D01*
X129582476Y-136030885D01*
X129487238Y-135983266D01*
X129392000Y-135888028D01*
X129344380Y-135745171D01*
X129344380Y-135649933D01*
X129392000Y-135507076D01*
X129439619Y-135459457D01*
X129439619Y-135078504D02*
X129392000Y-135030885D01*
X129344380Y-134935647D01*
X129344380Y-134697552D01*
X129392000Y-134602314D01*
X129439619Y-134554695D01*
X129534857Y-134507076D01*
X129630095Y-134507076D01*
X129772952Y-134554695D01*
X130344380Y-135126123D01*
X130344380Y-134507076D01*
X129772952Y-133935647D02*
X129725333Y-134030885D01*
X129677714Y-134078504D01*
X129582476Y-134126123D01*
X129534857Y-134126123D01*
X129439619Y-134078504D01*
X129392000Y-134030885D01*
X129344380Y-133935647D01*
X129344380Y-133745171D01*
X129392000Y-133649933D01*
X129439619Y-133602314D01*
X129534857Y-133554695D01*
X129582476Y-133554695D01*
X129677714Y-133602314D01*
X129725333Y-133649933D01*
X129772952Y-133745171D01*
X129772952Y-133935647D01*
X129820571Y-134030885D01*
X129868190Y-134078504D01*
X129963428Y-134126123D01*
X130153904Y-134126123D01*
X130249142Y-134078504D01*
X130296761Y-134030885D01*
X130344380Y-133935647D01*
X130344380Y-133745171D01*
X130296761Y-133649933D01*
X130249142Y-133602314D01*
X130153904Y-133554695D01*
X129963428Y-133554695D01*
X129868190Y-133602314D01*
X129820571Y-133649933D01*
X129772952Y-133745171D01*
%TO.C,R16*%
X67888380Y-104401857D02*
X67412190Y-104735190D01*
X67888380Y-104973285D02*
X66888380Y-104973285D01*
X66888380Y-104592333D01*
X66936000Y-104497095D01*
X66983619Y-104449476D01*
X67078857Y-104401857D01*
X67221714Y-104401857D01*
X67316952Y-104449476D01*
X67364571Y-104497095D01*
X67412190Y-104592333D01*
X67412190Y-104973285D01*
X67888380Y-103449476D02*
X67888380Y-104020904D01*
X67888380Y-103735190D02*
X66888380Y-103735190D01*
X67031238Y-103830428D01*
X67126476Y-103925666D01*
X67174095Y-104020904D01*
X66888380Y-102592333D02*
X66888380Y-102782809D01*
X66936000Y-102878047D01*
X66983619Y-102925666D01*
X67126476Y-103020904D01*
X67316952Y-103068523D01*
X67697904Y-103068523D01*
X67793142Y-103020904D01*
X67840761Y-102973285D01*
X67888380Y-102878047D01*
X67888380Y-102687571D01*
X67840761Y-102592333D01*
X67793142Y-102544714D01*
X67697904Y-102497095D01*
X67459809Y-102497095D01*
X67364571Y-102544714D01*
X67316952Y-102592333D01*
X67269333Y-102687571D01*
X67269333Y-102878047D01*
X67316952Y-102973285D01*
X67364571Y-103020904D01*
X67459809Y-103068523D01*
%TO.C,R14*%
X57222380Y-104417857D02*
X56746190Y-104751190D01*
X57222380Y-104989285D02*
X56222380Y-104989285D01*
X56222380Y-104608333D01*
X56270000Y-104513095D01*
X56317619Y-104465476D01*
X56412857Y-104417857D01*
X56555714Y-104417857D01*
X56650952Y-104465476D01*
X56698571Y-104513095D01*
X56746190Y-104608333D01*
X56746190Y-104989285D01*
X57222380Y-103465476D02*
X57222380Y-104036904D01*
X57222380Y-103751190D02*
X56222380Y-103751190D01*
X56365238Y-103846428D01*
X56460476Y-103941666D01*
X56508095Y-104036904D01*
X56555714Y-102608333D02*
X57222380Y-102608333D01*
X56174761Y-102846428D02*
X56889047Y-103084523D01*
X56889047Y-102465476D01*
%TO.C,U100*%
X127109180Y-134784885D02*
X127918704Y-134784885D01*
X128013942Y-134737266D01*
X128061561Y-134689647D01*
X128109180Y-134594409D01*
X128109180Y-134403933D01*
X128061561Y-134308695D01*
X128013942Y-134261076D01*
X127918704Y-134213457D01*
X127109180Y-134213457D01*
X128109180Y-133213457D02*
X128109180Y-133784885D01*
X128109180Y-133499171D02*
X127109180Y-133499171D01*
X127252038Y-133594409D01*
X127347276Y-133689647D01*
X127394895Y-133784885D01*
X127109180Y-132594409D02*
X127109180Y-132499171D01*
X127156800Y-132403933D01*
X127204419Y-132356314D01*
X127299657Y-132308695D01*
X127490133Y-132261076D01*
X127728228Y-132261076D01*
X127918704Y-132308695D01*
X128013942Y-132356314D01*
X128061561Y-132403933D01*
X128109180Y-132499171D01*
X128109180Y-132594409D01*
X128061561Y-132689647D01*
X128013942Y-132737266D01*
X127918704Y-132784885D01*
X127728228Y-132832504D01*
X127490133Y-132832504D01*
X127299657Y-132784885D01*
X127204419Y-132737266D01*
X127156800Y-132689647D01*
X127109180Y-132594409D01*
X127109180Y-131642028D02*
X127109180Y-131546790D01*
X127156800Y-131451552D01*
X127204419Y-131403933D01*
X127299657Y-131356314D01*
X127490133Y-131308695D01*
X127728228Y-131308695D01*
X127918704Y-131356314D01*
X128013942Y-131403933D01*
X128061561Y-131451552D01*
X128109180Y-131546790D01*
X128109180Y-131642028D01*
X128061561Y-131737266D01*
X128013942Y-131784885D01*
X127918704Y-131832504D01*
X127728228Y-131880123D01*
X127490133Y-131880123D01*
X127299657Y-131832504D01*
X127204419Y-131784885D01*
X127156800Y-131737266D01*
X127109180Y-131642028D01*
%TO.C,R17*%
X68270380Y-90050857D02*
X67794190Y-90384190D01*
X68270380Y-90622285D02*
X67270380Y-90622285D01*
X67270380Y-90241333D01*
X67318000Y-90146095D01*
X67365619Y-90098476D01*
X67460857Y-90050857D01*
X67603714Y-90050857D01*
X67698952Y-90098476D01*
X67746571Y-90146095D01*
X67794190Y-90241333D01*
X67794190Y-90622285D01*
X68270380Y-89098476D02*
X68270380Y-89669904D01*
X68270380Y-89384190D02*
X67270380Y-89384190D01*
X67413238Y-89479428D01*
X67508476Y-89574666D01*
X67556095Y-89669904D01*
X67270380Y-88765142D02*
X67270380Y-88098476D01*
X68270380Y-88527047D01*
%TO.C,U12*%
X171481904Y-88504080D02*
X171481904Y-89313604D01*
X171529523Y-89408842D01*
X171577142Y-89456461D01*
X171672380Y-89504080D01*
X171862857Y-89504080D01*
X171958095Y-89456461D01*
X172005714Y-89408842D01*
X172053333Y-89313604D01*
X172053333Y-88504080D01*
X173053333Y-89504080D02*
X172481904Y-89504080D01*
X172767619Y-89504080D02*
X172767619Y-88504080D01*
X172672380Y-88646938D01*
X172577142Y-88742176D01*
X172481904Y-88789795D01*
X173434285Y-88599319D02*
X173481904Y-88551700D01*
X173577142Y-88504080D01*
X173815238Y-88504080D01*
X173910476Y-88551700D01*
X173958095Y-88599319D01*
X174005714Y-88694557D01*
X174005714Y-88789795D01*
X173958095Y-88932652D01*
X173386666Y-89504080D01*
X174005714Y-89504080D01*
%TO.C,Q1*%
X159889961Y-144400819D02*
X159794723Y-144353200D01*
X159699485Y-144257961D01*
X159556628Y-144115104D01*
X159461390Y-144067485D01*
X159366152Y-144067485D01*
X159413771Y-144305580D02*
X159318533Y-144257961D01*
X159223295Y-144162723D01*
X159175676Y-143972247D01*
X159175676Y-143638914D01*
X159223295Y-143448438D01*
X159318533Y-143353200D01*
X159413771Y-143305580D01*
X159604247Y-143305580D01*
X159699485Y-143353200D01*
X159794723Y-143448438D01*
X159842342Y-143638914D01*
X159842342Y-143972247D01*
X159794723Y-144162723D01*
X159699485Y-144257961D01*
X159604247Y-144305580D01*
X159413771Y-144305580D01*
X160794723Y-144305580D02*
X160223295Y-144305580D01*
X160509009Y-144305580D02*
X160509009Y-143305580D01*
X160413771Y-143448438D01*
X160318533Y-143543676D01*
X160223295Y-143591295D01*
%TO.C,R1*%
X47093333Y-54428380D02*
X46760000Y-53952190D01*
X46521904Y-54428380D02*
X46521904Y-53428380D01*
X46902857Y-53428380D01*
X46998095Y-53476000D01*
X47045714Y-53523619D01*
X47093333Y-53618857D01*
X47093333Y-53761714D01*
X47045714Y-53856952D01*
X46998095Y-53904571D01*
X46902857Y-53952190D01*
X46521904Y-53952190D01*
X48045714Y-54428380D02*
X47474285Y-54428380D01*
X47760000Y-54428380D02*
X47760000Y-53428380D01*
X47664761Y-53571238D01*
X47569523Y-53666476D01*
X47474285Y-53714095D01*
%TO.C,R11*%
X58619380Y-78477857D02*
X58143190Y-78811190D01*
X58619380Y-79049285D02*
X57619380Y-79049285D01*
X57619380Y-78668333D01*
X57667000Y-78573095D01*
X57714619Y-78525476D01*
X57809857Y-78477857D01*
X57952714Y-78477857D01*
X58047952Y-78525476D01*
X58095571Y-78573095D01*
X58143190Y-78668333D01*
X58143190Y-79049285D01*
X58619380Y-77525476D02*
X58619380Y-78096904D01*
X58619380Y-77811190D02*
X57619380Y-77811190D01*
X57762238Y-77906428D01*
X57857476Y-78001666D01*
X57905095Y-78096904D01*
X58619380Y-76573095D02*
X58619380Y-77144523D01*
X58619380Y-76858809D02*
X57619380Y-76858809D01*
X57762238Y-76954047D01*
X57857476Y-77049285D01*
X57905095Y-77144523D01*
%TO.C,C9*%
X81481633Y-104221342D02*
X81434014Y-104268961D01*
X81291157Y-104316580D01*
X81195919Y-104316580D01*
X81053061Y-104268961D01*
X80957823Y-104173723D01*
X80910204Y-104078485D01*
X80862585Y-103888009D01*
X80862585Y-103745152D01*
X80910204Y-103554676D01*
X80957823Y-103459438D01*
X81053061Y-103364200D01*
X81195919Y-103316580D01*
X81291157Y-103316580D01*
X81434014Y-103364200D01*
X81481633Y-103411819D01*
X81957823Y-104316580D02*
X82148300Y-104316580D01*
X82243538Y-104268961D01*
X82291157Y-104221342D01*
X82386395Y-104078485D01*
X82434014Y-103888009D01*
X82434014Y-103507057D01*
X82386395Y-103411819D01*
X82338776Y-103364200D01*
X82243538Y-103316580D01*
X82053061Y-103316580D01*
X81957823Y-103364200D01*
X81910204Y-103411819D01*
X81862585Y-103507057D01*
X81862585Y-103745152D01*
X81910204Y-103840390D01*
X81957823Y-103888009D01*
X82053061Y-103935628D01*
X82243538Y-103935628D01*
X82338776Y-103888009D01*
X82386395Y-103840390D01*
X82434014Y-103745152D01*
%TO.C,U5*%
X81013395Y-72680580D02*
X81013395Y-73490104D01*
X81061014Y-73585342D01*
X81108633Y-73632961D01*
X81203871Y-73680580D01*
X81394347Y-73680580D01*
X81489585Y-73632961D01*
X81537204Y-73585342D01*
X81584823Y-73490104D01*
X81584823Y-72680580D01*
X82537204Y-72680580D02*
X82061014Y-72680580D01*
X82013395Y-73156771D01*
X82061014Y-73109152D01*
X82156252Y-73061533D01*
X82394347Y-73061533D01*
X82489585Y-73109152D01*
X82537204Y-73156771D01*
X82584823Y-73252009D01*
X82584823Y-73490104D01*
X82537204Y-73585342D01*
X82489585Y-73632961D01*
X82394347Y-73680580D01*
X82156252Y-73680580D01*
X82061014Y-73632961D01*
X82013395Y-73585342D01*
%TO.C,R126*%
X186713952Y-79775580D02*
X186380619Y-79299390D01*
X186142523Y-79775580D02*
X186142523Y-78775580D01*
X186523476Y-78775580D01*
X186618714Y-78823200D01*
X186666333Y-78870819D01*
X186713952Y-78966057D01*
X186713952Y-79108914D01*
X186666333Y-79204152D01*
X186618714Y-79251771D01*
X186523476Y-79299390D01*
X186142523Y-79299390D01*
X187666333Y-79775580D02*
X187094904Y-79775580D01*
X187380619Y-79775580D02*
X187380619Y-78775580D01*
X187285380Y-78918438D01*
X187190142Y-79013676D01*
X187094904Y-79061295D01*
X188047285Y-78870819D02*
X188094904Y-78823200D01*
X188190142Y-78775580D01*
X188428238Y-78775580D01*
X188523476Y-78823200D01*
X188571095Y-78870819D01*
X188618714Y-78966057D01*
X188618714Y-79061295D01*
X188571095Y-79204152D01*
X187999666Y-79775580D01*
X188618714Y-79775580D01*
X189475857Y-78775580D02*
X189285380Y-78775580D01*
X189190142Y-78823200D01*
X189142523Y-78870819D01*
X189047285Y-79013676D01*
X188999666Y-79204152D01*
X188999666Y-79585104D01*
X189047285Y-79680342D01*
X189094904Y-79727961D01*
X189190142Y-79775580D01*
X189380619Y-79775580D01*
X189475857Y-79727961D01*
X189523476Y-79680342D01*
X189571095Y-79585104D01*
X189571095Y-79347009D01*
X189523476Y-79251771D01*
X189475857Y-79204152D01*
X189380619Y-79156533D01*
X189190142Y-79156533D01*
X189094904Y-79204152D01*
X189047285Y-79251771D01*
X188999666Y-79347009D01*
%TO.C,R94*%
X102455742Y-99989380D02*
X102122409Y-99513190D01*
X101884314Y-99989380D02*
X101884314Y-98989380D01*
X102265266Y-98989380D01*
X102360504Y-99037000D01*
X102408123Y-99084619D01*
X102455742Y-99179857D01*
X102455742Y-99322714D01*
X102408123Y-99417952D01*
X102360504Y-99465571D01*
X102265266Y-99513190D01*
X101884314Y-99513190D01*
X102931933Y-99989380D02*
X103122409Y-99989380D01*
X103217647Y-99941761D01*
X103265266Y-99894142D01*
X103360504Y-99751285D01*
X103408123Y-99560809D01*
X103408123Y-99179857D01*
X103360504Y-99084619D01*
X103312885Y-99037000D01*
X103217647Y-98989380D01*
X103027171Y-98989380D01*
X102931933Y-99037000D01*
X102884314Y-99084619D01*
X102836695Y-99179857D01*
X102836695Y-99417952D01*
X102884314Y-99513190D01*
X102931933Y-99560809D01*
X103027171Y-99608428D01*
X103217647Y-99608428D01*
X103312885Y-99560809D01*
X103360504Y-99513190D01*
X103408123Y-99417952D01*
X104265266Y-99322714D02*
X104265266Y-99989380D01*
X104027171Y-98941761D02*
X103789076Y-99656047D01*
X104408123Y-99656047D01*
%TO.C,R92*%
X57601380Y-153280857D02*
X57125190Y-153614190D01*
X57601380Y-153852285D02*
X56601380Y-153852285D01*
X56601380Y-153471333D01*
X56649000Y-153376095D01*
X56696619Y-153328476D01*
X56791857Y-153280857D01*
X56934714Y-153280857D01*
X57029952Y-153328476D01*
X57077571Y-153376095D01*
X57125190Y-153471333D01*
X57125190Y-153852285D01*
X57601380Y-152804666D02*
X57601380Y-152614190D01*
X57553761Y-152518952D01*
X57506142Y-152471333D01*
X57363285Y-152376095D01*
X57172809Y-152328476D01*
X56791857Y-152328476D01*
X56696619Y-152376095D01*
X56649000Y-152423714D01*
X56601380Y-152518952D01*
X56601380Y-152709428D01*
X56649000Y-152804666D01*
X56696619Y-152852285D01*
X56791857Y-152899904D01*
X57029952Y-152899904D01*
X57125190Y-152852285D01*
X57172809Y-152804666D01*
X57220428Y-152709428D01*
X57220428Y-152518952D01*
X57172809Y-152423714D01*
X57125190Y-152376095D01*
X57029952Y-152328476D01*
X56696619Y-151947523D02*
X56649000Y-151899904D01*
X56601380Y-151804666D01*
X56601380Y-151566571D01*
X56649000Y-151471333D01*
X56696619Y-151423714D01*
X56791857Y-151376095D01*
X56887095Y-151376095D01*
X57029952Y-151423714D01*
X57601380Y-151995142D01*
X57601380Y-151376095D01*
%TO.C,C2*%
X32726333Y-143388142D02*
X32678714Y-143435761D01*
X32535857Y-143483380D01*
X32440619Y-143483380D01*
X32297761Y-143435761D01*
X32202523Y-143340523D01*
X32154904Y-143245285D01*
X32107285Y-143054809D01*
X32107285Y-142911952D01*
X32154904Y-142721476D01*
X32202523Y-142626238D01*
X32297761Y-142531000D01*
X32440619Y-142483380D01*
X32535857Y-142483380D01*
X32678714Y-142531000D01*
X32726333Y-142578619D01*
X33107285Y-142578619D02*
X33154904Y-142531000D01*
X33250142Y-142483380D01*
X33488238Y-142483380D01*
X33583476Y-142531000D01*
X33631095Y-142578619D01*
X33678714Y-142673857D01*
X33678714Y-142769095D01*
X33631095Y-142911952D01*
X33059666Y-143483380D01*
X33678714Y-143483380D01*
%TO.C,J10*%
X191416980Y-48231323D02*
X192131266Y-48231323D01*
X192274123Y-48278942D01*
X192369361Y-48374180D01*
X192416980Y-48517038D01*
X192416980Y-48612276D01*
X192416980Y-47231323D02*
X192416980Y-47802752D01*
X192416980Y-47517038D02*
X191416980Y-47517038D01*
X191559838Y-47612276D01*
X191655076Y-47707514D01*
X191702695Y-47802752D01*
X191416980Y-46612276D02*
X191416980Y-46517038D01*
X191464600Y-46421800D01*
X191512219Y-46374180D01*
X191607457Y-46326561D01*
X191797933Y-46278942D01*
X192036028Y-46278942D01*
X192226504Y-46326561D01*
X192321742Y-46374180D01*
X192369361Y-46421800D01*
X192416980Y-46517038D01*
X192416980Y-46612276D01*
X192369361Y-46707514D01*
X192321742Y-46755133D01*
X192226504Y-46802752D01*
X192036028Y-46850371D01*
X191797933Y-46850371D01*
X191607457Y-46802752D01*
X191512219Y-46755133D01*
X191464600Y-46707514D01*
X191416980Y-46612276D01*
%TO.C,R127*%
X206170352Y-76424780D02*
X205837019Y-75948590D01*
X205598923Y-76424780D02*
X205598923Y-75424780D01*
X205979876Y-75424780D01*
X206075114Y-75472400D01*
X206122733Y-75520019D01*
X206170352Y-75615257D01*
X206170352Y-75758114D01*
X206122733Y-75853352D01*
X206075114Y-75900971D01*
X205979876Y-75948590D01*
X205598923Y-75948590D01*
X207122733Y-76424780D02*
X206551304Y-76424780D01*
X206837019Y-76424780D02*
X206837019Y-75424780D01*
X206741780Y-75567638D01*
X206646542Y-75662876D01*
X206551304Y-75710495D01*
X207503685Y-75520019D02*
X207551304Y-75472400D01*
X207646542Y-75424780D01*
X207884638Y-75424780D01*
X207979876Y-75472400D01*
X208027495Y-75520019D01*
X208075114Y-75615257D01*
X208075114Y-75710495D01*
X208027495Y-75853352D01*
X207456066Y-76424780D01*
X208075114Y-76424780D01*
X208408447Y-75424780D02*
X209075114Y-75424780D01*
X208646542Y-76424780D01*
%TO.C,U7*%
X153060495Y-103227780D02*
X153060495Y-104037304D01*
X153108114Y-104132542D01*
X153155733Y-104180161D01*
X153250971Y-104227780D01*
X153441447Y-104227780D01*
X153536685Y-104180161D01*
X153584304Y-104132542D01*
X153631923Y-104037304D01*
X153631923Y-103227780D01*
X154012876Y-103227780D02*
X154679542Y-103227780D01*
X154250971Y-104227780D01*
%TO.C,R25*%
X69666380Y-115942857D02*
X69190190Y-116276190D01*
X69666380Y-116514285D02*
X68666380Y-116514285D01*
X68666380Y-116133333D01*
X68714000Y-116038095D01*
X68761619Y-115990476D01*
X68856857Y-115942857D01*
X68999714Y-115942857D01*
X69094952Y-115990476D01*
X69142571Y-116038095D01*
X69190190Y-116133333D01*
X69190190Y-116514285D01*
X68761619Y-115561904D02*
X68714000Y-115514285D01*
X68666380Y-115419047D01*
X68666380Y-115180952D01*
X68714000Y-115085714D01*
X68761619Y-115038095D01*
X68856857Y-114990476D01*
X68952095Y-114990476D01*
X69094952Y-115038095D01*
X69666380Y-115609523D01*
X69666380Y-114990476D01*
X68666380Y-114085714D02*
X68666380Y-114561904D01*
X69142571Y-114609523D01*
X69094952Y-114561904D01*
X69047333Y-114466666D01*
X69047333Y-114228571D01*
X69094952Y-114133333D01*
X69142571Y-114085714D01*
X69237809Y-114038095D01*
X69475904Y-114038095D01*
X69571142Y-114085714D01*
X69618761Y-114133333D01*
X69666380Y-114228571D01*
X69666380Y-114466666D01*
X69618761Y-114561904D01*
X69571142Y-114609523D01*
%TO.C,R90*%
X51632380Y-153423857D02*
X51156190Y-153757190D01*
X51632380Y-153995285D02*
X50632380Y-153995285D01*
X50632380Y-153614333D01*
X50680000Y-153519095D01*
X50727619Y-153471476D01*
X50822857Y-153423857D01*
X50965714Y-153423857D01*
X51060952Y-153471476D01*
X51108571Y-153519095D01*
X51156190Y-153614333D01*
X51156190Y-153995285D01*
X51632380Y-152947666D02*
X51632380Y-152757190D01*
X51584761Y-152661952D01*
X51537142Y-152614333D01*
X51394285Y-152519095D01*
X51203809Y-152471476D01*
X50822857Y-152471476D01*
X50727619Y-152519095D01*
X50680000Y-152566714D01*
X50632380Y-152661952D01*
X50632380Y-152852428D01*
X50680000Y-152947666D01*
X50727619Y-152995285D01*
X50822857Y-153042904D01*
X51060952Y-153042904D01*
X51156190Y-152995285D01*
X51203809Y-152947666D01*
X51251428Y-152852428D01*
X51251428Y-152661952D01*
X51203809Y-152566714D01*
X51156190Y-152519095D01*
X51060952Y-152471476D01*
X50632380Y-151852428D02*
X50632380Y-151757190D01*
X50680000Y-151661952D01*
X50727619Y-151614333D01*
X50822857Y-151566714D01*
X51013333Y-151519095D01*
X51251428Y-151519095D01*
X51441904Y-151566714D01*
X51537142Y-151614333D01*
X51584761Y-151661952D01*
X51632380Y-151757190D01*
X51632380Y-151852428D01*
X51584761Y-151947666D01*
X51537142Y-151995285D01*
X51441904Y-152042904D01*
X51251428Y-152090523D01*
X51013333Y-152090523D01*
X50822857Y-152042904D01*
X50727619Y-151995285D01*
X50680000Y-151947666D01*
X50632380Y-151852428D01*
%TO.C,U10*%
X168103704Y-118425980D02*
X168103704Y-119235504D01*
X168151323Y-119330742D01*
X168198942Y-119378361D01*
X168294180Y-119425980D01*
X168484657Y-119425980D01*
X168579895Y-119378361D01*
X168627514Y-119330742D01*
X168675133Y-119235504D01*
X168675133Y-118425980D01*
X169675133Y-119425980D02*
X169103704Y-119425980D01*
X169389419Y-119425980D02*
X169389419Y-118425980D01*
X169294180Y-118568838D01*
X169198942Y-118664076D01*
X169103704Y-118711695D01*
X170294180Y-118425980D02*
X170389419Y-118425980D01*
X170484657Y-118473600D01*
X170532276Y-118521219D01*
X170579895Y-118616457D01*
X170627514Y-118806933D01*
X170627514Y-119045028D01*
X170579895Y-119235504D01*
X170532276Y-119330742D01*
X170484657Y-119378361D01*
X170389419Y-119425980D01*
X170294180Y-119425980D01*
X170198942Y-119378361D01*
X170151323Y-119330742D01*
X170103704Y-119235504D01*
X170056085Y-119045028D01*
X170056085Y-118806933D01*
X170103704Y-118616457D01*
X170151323Y-118521219D01*
X170198942Y-118473600D01*
X170294180Y-118425980D01*
X179160419Y-116391600D02*
X178922323Y-116391600D01*
X179017561Y-116153504D02*
X178922323Y-116391600D01*
X179017561Y-116629695D01*
X178731847Y-116248742D02*
X178922323Y-116391600D01*
X178731847Y-116534457D01*
X178065180Y-116391600D02*
X178303276Y-116391600D01*
X178208038Y-116629695D02*
X178303276Y-116391600D01*
X178208038Y-116153504D01*
X178493752Y-116534457D02*
X178303276Y-116391600D01*
X178493752Y-116248742D01*
%TO.C,R9*%
X56204380Y-78017666D02*
X55728190Y-78351000D01*
X56204380Y-78589095D02*
X55204380Y-78589095D01*
X55204380Y-78208142D01*
X55252000Y-78112904D01*
X55299619Y-78065285D01*
X55394857Y-78017666D01*
X55537714Y-78017666D01*
X55632952Y-78065285D01*
X55680571Y-78112904D01*
X55728190Y-78208142D01*
X55728190Y-78589095D01*
X56204380Y-77541476D02*
X56204380Y-77351000D01*
X56156761Y-77255761D01*
X56109142Y-77208142D01*
X55966285Y-77112904D01*
X55775809Y-77065285D01*
X55394857Y-77065285D01*
X55299619Y-77112904D01*
X55252000Y-77160523D01*
X55204380Y-77255761D01*
X55204380Y-77446238D01*
X55252000Y-77541476D01*
X55299619Y-77589095D01*
X55394857Y-77636714D01*
X55632952Y-77636714D01*
X55728190Y-77589095D01*
X55775809Y-77541476D01*
X55823428Y-77446238D01*
X55823428Y-77255761D01*
X55775809Y-77160523D01*
X55728190Y-77112904D01*
X55632952Y-77065285D01*
%TO.C,C32*%
X181023742Y-120907957D02*
X181071361Y-120955576D01*
X181118980Y-121098433D01*
X181118980Y-121193671D01*
X181071361Y-121336528D01*
X180976123Y-121431766D01*
X180880885Y-121479385D01*
X180690409Y-121527004D01*
X180547552Y-121527004D01*
X180357076Y-121479385D01*
X180261838Y-121431766D01*
X180166600Y-121336528D01*
X180118980Y-121193671D01*
X180118980Y-121098433D01*
X180166600Y-120955576D01*
X180214219Y-120907957D01*
X180118980Y-120574623D02*
X180118980Y-119955576D01*
X180499933Y-120288909D01*
X180499933Y-120146052D01*
X180547552Y-120050814D01*
X180595171Y-120003195D01*
X180690409Y-119955576D01*
X180928504Y-119955576D01*
X181023742Y-120003195D01*
X181071361Y-120050814D01*
X181118980Y-120146052D01*
X181118980Y-120431766D01*
X181071361Y-120527004D01*
X181023742Y-120574623D01*
X180214219Y-119574623D02*
X180166600Y-119527004D01*
X180118980Y-119431766D01*
X180118980Y-119193671D01*
X180166600Y-119098433D01*
X180214219Y-119050814D01*
X180309457Y-119003195D01*
X180404695Y-119003195D01*
X180547552Y-119050814D01*
X181118980Y-119622242D01*
X181118980Y-119003195D01*
%TO.C,R93*%
X63189380Y-153423857D02*
X62713190Y-153757190D01*
X63189380Y-153995285D02*
X62189380Y-153995285D01*
X62189380Y-153614333D01*
X62237000Y-153519095D01*
X62284619Y-153471476D01*
X62379857Y-153423857D01*
X62522714Y-153423857D01*
X62617952Y-153471476D01*
X62665571Y-153519095D01*
X62713190Y-153614333D01*
X62713190Y-153995285D01*
X63189380Y-152947666D02*
X63189380Y-152757190D01*
X63141761Y-152661952D01*
X63094142Y-152614333D01*
X62951285Y-152519095D01*
X62760809Y-152471476D01*
X62379857Y-152471476D01*
X62284619Y-152519095D01*
X62237000Y-152566714D01*
X62189380Y-152661952D01*
X62189380Y-152852428D01*
X62237000Y-152947666D01*
X62284619Y-152995285D01*
X62379857Y-153042904D01*
X62617952Y-153042904D01*
X62713190Y-152995285D01*
X62760809Y-152947666D01*
X62808428Y-152852428D01*
X62808428Y-152661952D01*
X62760809Y-152566714D01*
X62713190Y-152519095D01*
X62617952Y-152471476D01*
X62189380Y-152138142D02*
X62189380Y-151519095D01*
X62570333Y-151852428D01*
X62570333Y-151709571D01*
X62617952Y-151614333D01*
X62665571Y-151566714D01*
X62760809Y-151519095D01*
X62998904Y-151519095D01*
X63094142Y-151566714D01*
X63141761Y-151614333D01*
X63189380Y-151709571D01*
X63189380Y-151995285D01*
X63141761Y-152090523D01*
X63094142Y-152138142D01*
%TO.C,R19*%
X64078380Y-89923857D02*
X63602190Y-90257190D01*
X64078380Y-90495285D02*
X63078380Y-90495285D01*
X63078380Y-90114333D01*
X63126000Y-90019095D01*
X63173619Y-89971476D01*
X63268857Y-89923857D01*
X63411714Y-89923857D01*
X63506952Y-89971476D01*
X63554571Y-90019095D01*
X63602190Y-90114333D01*
X63602190Y-90495285D01*
X64078380Y-88971476D02*
X64078380Y-89542904D01*
X64078380Y-89257190D02*
X63078380Y-89257190D01*
X63221238Y-89352428D01*
X63316476Y-89447666D01*
X63364095Y-89542904D01*
X64078380Y-88495285D02*
X64078380Y-88304809D01*
X64030761Y-88209571D01*
X63983142Y-88161952D01*
X63840285Y-88066714D01*
X63649809Y-88019095D01*
X63268857Y-88019095D01*
X63173619Y-88066714D01*
X63126000Y-88114333D01*
X63078380Y-88209571D01*
X63078380Y-88400047D01*
X63126000Y-88495285D01*
X63173619Y-88542904D01*
X63268857Y-88590523D01*
X63506952Y-88590523D01*
X63602190Y-88542904D01*
X63649809Y-88495285D01*
X63697428Y-88400047D01*
X63697428Y-88209571D01*
X63649809Y-88114333D01*
X63602190Y-88066714D01*
X63506952Y-88019095D01*
%TO.C,R18*%
X60778380Y-104401857D02*
X60302190Y-104735190D01*
X60778380Y-104973285D02*
X59778380Y-104973285D01*
X59778380Y-104592333D01*
X59826000Y-104497095D01*
X59873619Y-104449476D01*
X59968857Y-104401857D01*
X60111714Y-104401857D01*
X60206952Y-104449476D01*
X60254571Y-104497095D01*
X60302190Y-104592333D01*
X60302190Y-104973285D01*
X60778380Y-103449476D02*
X60778380Y-104020904D01*
X60778380Y-103735190D02*
X59778380Y-103735190D01*
X59921238Y-103830428D01*
X60016476Y-103925666D01*
X60064095Y-104020904D01*
X60206952Y-102878047D02*
X60159333Y-102973285D01*
X60111714Y-103020904D01*
X60016476Y-103068523D01*
X59968857Y-103068523D01*
X59873619Y-103020904D01*
X59826000Y-102973285D01*
X59778380Y-102878047D01*
X59778380Y-102687571D01*
X59826000Y-102592333D01*
X59873619Y-102544714D01*
X59968857Y-102497095D01*
X60016476Y-102497095D01*
X60111714Y-102544714D01*
X60159333Y-102592333D01*
X60206952Y-102687571D01*
X60206952Y-102878047D01*
X60254571Y-102973285D01*
X60302190Y-103020904D01*
X60397428Y-103068523D01*
X60587904Y-103068523D01*
X60683142Y-103020904D01*
X60730761Y-102973285D01*
X60778380Y-102878047D01*
X60778380Y-102687571D01*
X60730761Y-102592333D01*
X60683142Y-102544714D01*
X60587904Y-102497095D01*
X60397428Y-102497095D01*
X60302190Y-102544714D01*
X60254571Y-102592333D01*
X60206952Y-102687571D01*
%TO.C,R8*%
X47585333Y-66872380D02*
X47252000Y-66396190D01*
X47013904Y-66872380D02*
X47013904Y-65872380D01*
X47394857Y-65872380D01*
X47490095Y-65920000D01*
X47537714Y-65967619D01*
X47585333Y-66062857D01*
X47585333Y-66205714D01*
X47537714Y-66300952D01*
X47490095Y-66348571D01*
X47394857Y-66396190D01*
X47013904Y-66396190D01*
X48156761Y-66300952D02*
X48061523Y-66253333D01*
X48013904Y-66205714D01*
X47966285Y-66110476D01*
X47966285Y-66062857D01*
X48013904Y-65967619D01*
X48061523Y-65920000D01*
X48156761Y-65872380D01*
X48347238Y-65872380D01*
X48442476Y-65920000D01*
X48490095Y-65967619D01*
X48537714Y-66062857D01*
X48537714Y-66110476D01*
X48490095Y-66205714D01*
X48442476Y-66253333D01*
X48347238Y-66300952D01*
X48156761Y-66300952D01*
X48061523Y-66348571D01*
X48013904Y-66396190D01*
X47966285Y-66491428D01*
X47966285Y-66681904D01*
X48013904Y-66777142D01*
X48061523Y-66824761D01*
X48156761Y-66872380D01*
X48347238Y-66872380D01*
X48442476Y-66824761D01*
X48490095Y-66777142D01*
X48537714Y-66681904D01*
X48537714Y-66491428D01*
X48490095Y-66396190D01*
X48442476Y-66348571D01*
X48347238Y-66300952D01*
%TO.C,R91*%
X69412380Y-153296857D02*
X68936190Y-153630190D01*
X69412380Y-153868285D02*
X68412380Y-153868285D01*
X68412380Y-153487333D01*
X68460000Y-153392095D01*
X68507619Y-153344476D01*
X68602857Y-153296857D01*
X68745714Y-153296857D01*
X68840952Y-153344476D01*
X68888571Y-153392095D01*
X68936190Y-153487333D01*
X68936190Y-153868285D01*
X69412380Y-152820666D02*
X69412380Y-152630190D01*
X69364761Y-152534952D01*
X69317142Y-152487333D01*
X69174285Y-152392095D01*
X68983809Y-152344476D01*
X68602857Y-152344476D01*
X68507619Y-152392095D01*
X68460000Y-152439714D01*
X68412380Y-152534952D01*
X68412380Y-152725428D01*
X68460000Y-152820666D01*
X68507619Y-152868285D01*
X68602857Y-152915904D01*
X68840952Y-152915904D01*
X68936190Y-152868285D01*
X68983809Y-152820666D01*
X69031428Y-152725428D01*
X69031428Y-152534952D01*
X68983809Y-152439714D01*
X68936190Y-152392095D01*
X68840952Y-152344476D01*
X69412380Y-151392095D02*
X69412380Y-151963523D01*
X69412380Y-151677809D02*
X68412380Y-151677809D01*
X68555238Y-151773047D01*
X68650476Y-151868285D01*
X68698095Y-151963523D01*
%TO.C,C33*%
X186383142Y-120907957D02*
X186430761Y-120955576D01*
X186478380Y-121098433D01*
X186478380Y-121193671D01*
X186430761Y-121336528D01*
X186335523Y-121431766D01*
X186240285Y-121479385D01*
X186049809Y-121527004D01*
X185906952Y-121527004D01*
X185716476Y-121479385D01*
X185621238Y-121431766D01*
X185526000Y-121336528D01*
X185478380Y-121193671D01*
X185478380Y-121098433D01*
X185526000Y-120955576D01*
X185573619Y-120907957D01*
X185478380Y-120574623D02*
X185478380Y-119955576D01*
X185859333Y-120288909D01*
X185859333Y-120146052D01*
X185906952Y-120050814D01*
X185954571Y-120003195D01*
X186049809Y-119955576D01*
X186287904Y-119955576D01*
X186383142Y-120003195D01*
X186430761Y-120050814D01*
X186478380Y-120146052D01*
X186478380Y-120431766D01*
X186430761Y-120527004D01*
X186383142Y-120574623D01*
X185478380Y-119622242D02*
X185478380Y-119003195D01*
X185859333Y-119336528D01*
X185859333Y-119193671D01*
X185906952Y-119098433D01*
X185954571Y-119050814D01*
X186049809Y-119003195D01*
X186287904Y-119003195D01*
X186383142Y-119050814D01*
X186430761Y-119098433D01*
X186478380Y-119193671D01*
X186478380Y-119479385D01*
X186430761Y-119574623D01*
X186383142Y-119622242D01*
%TO.C,Q3*%
X173458161Y-144502419D02*
X173362923Y-144454800D01*
X173267685Y-144359561D01*
X173124828Y-144216704D01*
X173029590Y-144169085D01*
X172934352Y-144169085D01*
X172981971Y-144407180D02*
X172886733Y-144359561D01*
X172791495Y-144264323D01*
X172743876Y-144073847D01*
X172743876Y-143740514D01*
X172791495Y-143550038D01*
X172886733Y-143454800D01*
X172981971Y-143407180D01*
X173172447Y-143407180D01*
X173267685Y-143454800D01*
X173362923Y-143550038D01*
X173410542Y-143740514D01*
X173410542Y-144073847D01*
X173362923Y-144264323D01*
X173267685Y-144359561D01*
X173172447Y-144407180D01*
X172981971Y-144407180D01*
X173743876Y-143407180D02*
X174362923Y-143407180D01*
X174029590Y-143788133D01*
X174172447Y-143788133D01*
X174267685Y-143835752D01*
X174315304Y-143883371D01*
X174362923Y-143978609D01*
X174362923Y-144216704D01*
X174315304Y-144311942D01*
X174267685Y-144359561D01*
X174172447Y-144407180D01*
X173886733Y-144407180D01*
X173791495Y-144359561D01*
X173743876Y-144311942D01*
%TO.C,R107*%
X158840752Y-153283180D02*
X158507419Y-152806990D01*
X158269323Y-153283180D02*
X158269323Y-152283180D01*
X158650276Y-152283180D01*
X158745514Y-152330800D01*
X158793133Y-152378419D01*
X158840752Y-152473657D01*
X158840752Y-152616514D01*
X158793133Y-152711752D01*
X158745514Y-152759371D01*
X158650276Y-152806990D01*
X158269323Y-152806990D01*
X159793133Y-153283180D02*
X159221704Y-153283180D01*
X159507419Y-153283180D02*
X159507419Y-152283180D01*
X159412180Y-152426038D01*
X159316942Y-152521276D01*
X159221704Y-152568895D01*
X160412180Y-152283180D02*
X160507419Y-152283180D01*
X160602657Y-152330800D01*
X160650276Y-152378419D01*
X160697895Y-152473657D01*
X160745514Y-152664133D01*
X160745514Y-152902228D01*
X160697895Y-153092704D01*
X160650276Y-153187942D01*
X160602657Y-153235561D01*
X160507419Y-153283180D01*
X160412180Y-153283180D01*
X160316942Y-153235561D01*
X160269323Y-153187942D01*
X160221704Y-153092704D01*
X160174085Y-152902228D01*
X160174085Y-152664133D01*
X160221704Y-152473657D01*
X160269323Y-152378419D01*
X160316942Y-152330800D01*
X160412180Y-152283180D01*
X161078847Y-152283180D02*
X161745514Y-152283180D01*
X161316942Y-153283180D01*
%TO.C,R110*%
X179694152Y-153181580D02*
X179360819Y-152705390D01*
X179122723Y-153181580D02*
X179122723Y-152181580D01*
X179503676Y-152181580D01*
X179598914Y-152229200D01*
X179646533Y-152276819D01*
X179694152Y-152372057D01*
X179694152Y-152514914D01*
X179646533Y-152610152D01*
X179598914Y-152657771D01*
X179503676Y-152705390D01*
X179122723Y-152705390D01*
X180646533Y-153181580D02*
X180075104Y-153181580D01*
X180360819Y-153181580D02*
X180360819Y-152181580D01*
X180265580Y-152324438D01*
X180170342Y-152419676D01*
X180075104Y-152467295D01*
X181598914Y-153181580D02*
X181027485Y-153181580D01*
X181313200Y-153181580D02*
X181313200Y-152181580D01*
X181217961Y-152324438D01*
X181122723Y-152419676D01*
X181027485Y-152467295D01*
X182217961Y-152181580D02*
X182313200Y-152181580D01*
X182408438Y-152229200D01*
X182456057Y-152276819D01*
X182503676Y-152372057D01*
X182551295Y-152562533D01*
X182551295Y-152800628D01*
X182503676Y-152991104D01*
X182456057Y-153086342D01*
X182408438Y-153133961D01*
X182313200Y-153181580D01*
X182217961Y-153181580D01*
X182122723Y-153133961D01*
X182075104Y-153086342D01*
X182027485Y-152991104D01*
X181979866Y-152800628D01*
X181979866Y-152562533D01*
X182027485Y-152372057D01*
X182075104Y-152276819D01*
X182122723Y-152229200D01*
X182217961Y-152181580D01*
%TO.C,U4*%
X81140395Y-122591580D02*
X81140395Y-123401104D01*
X81188014Y-123496342D01*
X81235633Y-123543961D01*
X81330871Y-123591580D01*
X81521347Y-123591580D01*
X81616585Y-123543961D01*
X81664204Y-123496342D01*
X81711823Y-123401104D01*
X81711823Y-122591580D01*
X82616585Y-122924914D02*
X82616585Y-123591580D01*
X82378490Y-122543961D02*
X82140395Y-123258247D01*
X82759442Y-123258247D01*
%TO.C,C18*%
X104145142Y-107976657D02*
X104192761Y-108024276D01*
X104240380Y-108167133D01*
X104240380Y-108262371D01*
X104192761Y-108405228D01*
X104097523Y-108500466D01*
X104002285Y-108548085D01*
X103811809Y-108595704D01*
X103668952Y-108595704D01*
X103478476Y-108548085D01*
X103383238Y-108500466D01*
X103288000Y-108405228D01*
X103240380Y-108262371D01*
X103240380Y-108167133D01*
X103288000Y-108024276D01*
X103335619Y-107976657D01*
X104240380Y-107024276D02*
X104240380Y-107595704D01*
X104240380Y-107309990D02*
X103240380Y-107309990D01*
X103383238Y-107405228D01*
X103478476Y-107500466D01*
X103526095Y-107595704D01*
X103668952Y-106452847D02*
X103621333Y-106548085D01*
X103573714Y-106595704D01*
X103478476Y-106643323D01*
X103430857Y-106643323D01*
X103335619Y-106595704D01*
X103288000Y-106548085D01*
X103240380Y-106452847D01*
X103240380Y-106262371D01*
X103288000Y-106167133D01*
X103335619Y-106119514D01*
X103430857Y-106071895D01*
X103478476Y-106071895D01*
X103573714Y-106119514D01*
X103621333Y-106167133D01*
X103668952Y-106262371D01*
X103668952Y-106452847D01*
X103716571Y-106548085D01*
X103764190Y-106595704D01*
X103859428Y-106643323D01*
X104049904Y-106643323D01*
X104145142Y-106595704D01*
X104192761Y-106548085D01*
X104240380Y-106452847D01*
X104240380Y-106262371D01*
X104192761Y-106167133D01*
X104145142Y-106119514D01*
X104049904Y-106071895D01*
X103859428Y-106071895D01*
X103764190Y-106119514D01*
X103716571Y-106167133D01*
X103668952Y-106262371D01*
%TO.C,C12*%
X81259442Y-54183342D02*
X81211823Y-54230961D01*
X81068966Y-54278580D01*
X80973728Y-54278580D01*
X80830871Y-54230961D01*
X80735633Y-54135723D01*
X80688014Y-54040485D01*
X80640395Y-53850009D01*
X80640395Y-53707152D01*
X80688014Y-53516676D01*
X80735633Y-53421438D01*
X80830871Y-53326200D01*
X80973728Y-53278580D01*
X81068966Y-53278580D01*
X81211823Y-53326200D01*
X81259442Y-53373819D01*
X82211823Y-54278580D02*
X81640395Y-54278580D01*
X81926109Y-54278580D02*
X81926109Y-53278580D01*
X81830871Y-53421438D01*
X81735633Y-53516676D01*
X81640395Y-53564295D01*
X82592776Y-53373819D02*
X82640395Y-53326200D01*
X82735633Y-53278580D01*
X82973728Y-53278580D01*
X83068966Y-53326200D01*
X83116585Y-53373819D01*
X83164204Y-53469057D01*
X83164204Y-53564295D01*
X83116585Y-53707152D01*
X82545157Y-54278580D01*
X83164204Y-54278580D01*
%TO.C,R96*%
X121454942Y-100090980D02*
X121121609Y-99614790D01*
X120883514Y-100090980D02*
X120883514Y-99090980D01*
X121264466Y-99090980D01*
X121359704Y-99138600D01*
X121407323Y-99186219D01*
X121454942Y-99281457D01*
X121454942Y-99424314D01*
X121407323Y-99519552D01*
X121359704Y-99567171D01*
X121264466Y-99614790D01*
X120883514Y-99614790D01*
X121931133Y-100090980D02*
X122121609Y-100090980D01*
X122216847Y-100043361D01*
X122264466Y-99995742D01*
X122359704Y-99852885D01*
X122407323Y-99662409D01*
X122407323Y-99281457D01*
X122359704Y-99186219D01*
X122312085Y-99138600D01*
X122216847Y-99090980D01*
X122026371Y-99090980D01*
X121931133Y-99138600D01*
X121883514Y-99186219D01*
X121835895Y-99281457D01*
X121835895Y-99519552D01*
X121883514Y-99614790D01*
X121931133Y-99662409D01*
X122026371Y-99710028D01*
X122216847Y-99710028D01*
X122312085Y-99662409D01*
X122359704Y-99614790D01*
X122407323Y-99519552D01*
X123264466Y-99090980D02*
X123073990Y-99090980D01*
X122978752Y-99138600D01*
X122931133Y-99186219D01*
X122835895Y-99329076D01*
X122788276Y-99519552D01*
X122788276Y-99900504D01*
X122835895Y-99995742D01*
X122883514Y-100043361D01*
X122978752Y-100090980D01*
X123169228Y-100090980D01*
X123264466Y-100043361D01*
X123312085Y-99995742D01*
X123359704Y-99900504D01*
X123359704Y-99662409D01*
X123312085Y-99567171D01*
X123264466Y-99519552D01*
X123169228Y-99471933D01*
X122978752Y-99471933D01*
X122883514Y-99519552D01*
X122835895Y-99567171D01*
X122788276Y-99662409D01*
%TO.C,C24*%
X156760942Y-96652142D02*
X156713323Y-96699761D01*
X156570466Y-96747380D01*
X156475228Y-96747380D01*
X156332371Y-96699761D01*
X156237133Y-96604523D01*
X156189514Y-96509285D01*
X156141895Y-96318809D01*
X156141895Y-96175952D01*
X156189514Y-95985476D01*
X156237133Y-95890238D01*
X156332371Y-95795000D01*
X156475228Y-95747380D01*
X156570466Y-95747380D01*
X156713323Y-95795000D01*
X156760942Y-95842619D01*
X157141895Y-95842619D02*
X157189514Y-95795000D01*
X157284752Y-95747380D01*
X157522847Y-95747380D01*
X157618085Y-95795000D01*
X157665704Y-95842619D01*
X157713323Y-95937857D01*
X157713323Y-96033095D01*
X157665704Y-96175952D01*
X157094276Y-96747380D01*
X157713323Y-96747380D01*
X158570466Y-96080714D02*
X158570466Y-96747380D01*
X158332371Y-95699761D02*
X158094276Y-96414047D01*
X158713323Y-96414047D01*
%TO.C,J11*%
X190873580Y-95729323D02*
X191587866Y-95729323D01*
X191730723Y-95776942D01*
X191825961Y-95872180D01*
X191873580Y-96015038D01*
X191873580Y-96110276D01*
X191873580Y-94729323D02*
X191873580Y-95300752D01*
X191873580Y-95015038D02*
X190873580Y-95015038D01*
X191016438Y-95110276D01*
X191111676Y-95205514D01*
X191159295Y-95300752D01*
X191873580Y-93776942D02*
X191873580Y-94348371D01*
X191873580Y-94062657D02*
X190873580Y-94062657D01*
X191016438Y-94157895D01*
X191111676Y-94253133D01*
X191159295Y-94348371D01*
%TO.C,J2*%
X38657380Y-74120333D02*
X39371666Y-74120333D01*
X39514523Y-74167952D01*
X39609761Y-74263190D01*
X39657380Y-74406047D01*
X39657380Y-74501285D01*
X38752619Y-73691761D02*
X38705000Y-73644142D01*
X38657380Y-73548904D01*
X38657380Y-73310809D01*
X38705000Y-73215571D01*
X38752619Y-73167952D01*
X38847857Y-73120333D01*
X38943095Y-73120333D01*
X39085952Y-73167952D01*
X39657380Y-73739380D01*
X39657380Y-73120333D01*
%TO.C,U6*%
X112776095Y-102217380D02*
X112776095Y-103026904D01*
X112823714Y-103122142D01*
X112871333Y-103169761D01*
X112966571Y-103217380D01*
X113157047Y-103217380D01*
X113252285Y-103169761D01*
X113299904Y-103122142D01*
X113347523Y-103026904D01*
X113347523Y-102217380D01*
X114252285Y-102217380D02*
X114061809Y-102217380D01*
X113966571Y-102265000D01*
X113918952Y-102312619D01*
X113823714Y-102455476D01*
X113776095Y-102645952D01*
X113776095Y-103026904D01*
X113823714Y-103122142D01*
X113871333Y-103169761D01*
X113966571Y-103217380D01*
X114157047Y-103217380D01*
X114252285Y-103169761D01*
X114299904Y-103122142D01*
X114347523Y-103026904D01*
X114347523Y-102788809D01*
X114299904Y-102693571D01*
X114252285Y-102645952D01*
X114157047Y-102598333D01*
X113966571Y-102598333D01*
X113871333Y-102645952D01*
X113823714Y-102693571D01*
X113776095Y-102788809D01*
%TO.C,U13*%
X195851704Y-79865180D02*
X195851704Y-80674704D01*
X195899323Y-80769942D01*
X195946942Y-80817561D01*
X196042180Y-80865180D01*
X196232657Y-80865180D01*
X196327895Y-80817561D01*
X196375514Y-80769942D01*
X196423133Y-80674704D01*
X196423133Y-79865180D01*
X197423133Y-80865180D02*
X196851704Y-80865180D01*
X197137419Y-80865180D02*
X197137419Y-79865180D01*
X197042180Y-80008038D01*
X196946942Y-80103276D01*
X196851704Y-80150895D01*
X197756466Y-79865180D02*
X198375514Y-79865180D01*
X198042180Y-80246133D01*
X198185038Y-80246133D01*
X198280276Y-80293752D01*
X198327895Y-80341371D01*
X198375514Y-80436609D01*
X198375514Y-80674704D01*
X198327895Y-80769942D01*
X198280276Y-80817561D01*
X198185038Y-80865180D01*
X197899323Y-80865180D01*
X197804085Y-80817561D01*
X197756466Y-80769942D01*
%TO.C,U11*%
X171659704Y-70647880D02*
X171659704Y-71457404D01*
X171707323Y-71552642D01*
X171754942Y-71600261D01*
X171850180Y-71647880D01*
X172040657Y-71647880D01*
X172135895Y-71600261D01*
X172183514Y-71552642D01*
X172231133Y-71457404D01*
X172231133Y-70647880D01*
X173231133Y-71647880D02*
X172659704Y-71647880D01*
X172945419Y-71647880D02*
X172945419Y-70647880D01*
X172850180Y-70790738D01*
X172754942Y-70885976D01*
X172659704Y-70933595D01*
X174183514Y-71647880D02*
X173612085Y-71647880D01*
X173897800Y-71647880D02*
X173897800Y-70647880D01*
X173802561Y-70790738D01*
X173707323Y-70885976D01*
X173612085Y-70933595D01*
%TO.C,R108*%
X165114552Y-153308580D02*
X164781219Y-152832390D01*
X164543123Y-153308580D02*
X164543123Y-152308580D01*
X164924076Y-152308580D01*
X165019314Y-152356200D01*
X165066933Y-152403819D01*
X165114552Y-152499057D01*
X165114552Y-152641914D01*
X165066933Y-152737152D01*
X165019314Y-152784771D01*
X164924076Y-152832390D01*
X164543123Y-152832390D01*
X166066933Y-153308580D02*
X165495504Y-153308580D01*
X165781219Y-153308580D02*
X165781219Y-152308580D01*
X165685980Y-152451438D01*
X165590742Y-152546676D01*
X165495504Y-152594295D01*
X166685980Y-152308580D02*
X166781219Y-152308580D01*
X166876457Y-152356200D01*
X166924076Y-152403819D01*
X166971695Y-152499057D01*
X167019314Y-152689533D01*
X167019314Y-152927628D01*
X166971695Y-153118104D01*
X166924076Y-153213342D01*
X166876457Y-153260961D01*
X166781219Y-153308580D01*
X166685980Y-153308580D01*
X166590742Y-153260961D01*
X166543123Y-153213342D01*
X166495504Y-153118104D01*
X166447885Y-152927628D01*
X166447885Y-152689533D01*
X166495504Y-152499057D01*
X166543123Y-152403819D01*
X166590742Y-152356200D01*
X166685980Y-152308580D01*
X167590742Y-152737152D02*
X167495504Y-152689533D01*
X167447885Y-152641914D01*
X167400266Y-152546676D01*
X167400266Y-152499057D01*
X167447885Y-152403819D01*
X167495504Y-152356200D01*
X167590742Y-152308580D01*
X167781219Y-152308580D01*
X167876457Y-152356200D01*
X167924076Y-152403819D01*
X167971695Y-152499057D01*
X167971695Y-152546676D01*
X167924076Y-152641914D01*
X167876457Y-152689533D01*
X167781219Y-152737152D01*
X167590742Y-152737152D01*
X167495504Y-152784771D01*
X167447885Y-152832390D01*
X167400266Y-152927628D01*
X167400266Y-153118104D01*
X167447885Y-153213342D01*
X167495504Y-153260961D01*
X167590742Y-153308580D01*
X167781219Y-153308580D01*
X167876457Y-153260961D01*
X167924076Y-153213342D01*
X167971695Y-153118104D01*
X167971695Y-152927628D01*
X167924076Y-152832390D01*
X167876457Y-152784771D01*
X167781219Y-152737152D01*
%TO.C,R7*%
X47585333Y-80336380D02*
X47252000Y-79860190D01*
X47013904Y-80336380D02*
X47013904Y-79336380D01*
X47394857Y-79336380D01*
X47490095Y-79384000D01*
X47537714Y-79431619D01*
X47585333Y-79526857D01*
X47585333Y-79669714D01*
X47537714Y-79764952D01*
X47490095Y-79812571D01*
X47394857Y-79860190D01*
X47013904Y-79860190D01*
X47918666Y-79336380D02*
X48585333Y-79336380D01*
X48156761Y-80336380D01*
%TO.C,C1*%
X37806333Y-152151142D02*
X37758714Y-152198761D01*
X37615857Y-152246380D01*
X37520619Y-152246380D01*
X37377761Y-152198761D01*
X37282523Y-152103523D01*
X37234904Y-152008285D01*
X37187285Y-151817809D01*
X37187285Y-151674952D01*
X37234904Y-151484476D01*
X37282523Y-151389238D01*
X37377761Y-151294000D01*
X37520619Y-151246380D01*
X37615857Y-151246380D01*
X37758714Y-151294000D01*
X37806333Y-151341619D01*
X38758714Y-152246380D02*
X38187285Y-152246380D01*
X38473000Y-152246380D02*
X38473000Y-151246380D01*
X38377761Y-151389238D01*
X38282523Y-151484476D01*
X38187285Y-151532095D01*
%TO.C,C11*%
X81005442Y-114635342D02*
X80957823Y-114682961D01*
X80814966Y-114730580D01*
X80719728Y-114730580D01*
X80576871Y-114682961D01*
X80481633Y-114587723D01*
X80434014Y-114492485D01*
X80386395Y-114302009D01*
X80386395Y-114159152D01*
X80434014Y-113968676D01*
X80481633Y-113873438D01*
X80576871Y-113778200D01*
X80719728Y-113730580D01*
X80814966Y-113730580D01*
X80957823Y-113778200D01*
X81005442Y-113825819D01*
X81957823Y-114730580D02*
X81386395Y-114730580D01*
X81672109Y-114730580D02*
X81672109Y-113730580D01*
X81576871Y-113873438D01*
X81481633Y-113968676D01*
X81386395Y-114016295D01*
X82910204Y-114730580D02*
X82338776Y-114730580D01*
X82624490Y-114730580D02*
X82624490Y-113730580D01*
X82529252Y-113873438D01*
X82434014Y-113968676D01*
X82338776Y-114016295D01*
%TO.C,C23*%
X158976542Y-101938057D02*
X159024161Y-101985676D01*
X159071780Y-102128533D01*
X159071780Y-102223771D01*
X159024161Y-102366628D01*
X158928923Y-102461866D01*
X158833685Y-102509485D01*
X158643209Y-102557104D01*
X158500352Y-102557104D01*
X158309876Y-102509485D01*
X158214638Y-102461866D01*
X158119400Y-102366628D01*
X158071780Y-102223771D01*
X158071780Y-102128533D01*
X158119400Y-101985676D01*
X158167019Y-101938057D01*
X158167019Y-101557104D02*
X158119400Y-101509485D01*
X158071780Y-101414247D01*
X158071780Y-101176152D01*
X158119400Y-101080914D01*
X158167019Y-101033295D01*
X158262257Y-100985676D01*
X158357495Y-100985676D01*
X158500352Y-101033295D01*
X159071780Y-101604723D01*
X159071780Y-100985676D01*
X158071780Y-100652342D02*
X158071780Y-100033295D01*
X158452733Y-100366628D01*
X158452733Y-100223771D01*
X158500352Y-100128533D01*
X158547971Y-100080914D01*
X158643209Y-100033295D01*
X158881304Y-100033295D01*
X158976542Y-100080914D01*
X159024161Y-100128533D01*
X159071780Y-100223771D01*
X159071780Y-100509485D01*
X159024161Y-100604723D01*
X158976542Y-100652342D01*
%TO.C,RV1*%
X125337961Y-118042580D02*
X125004628Y-117566390D01*
X124766533Y-118042580D02*
X124766533Y-117042580D01*
X125147485Y-117042580D01*
X125242723Y-117090200D01*
X125290342Y-117137819D01*
X125337961Y-117233057D01*
X125337961Y-117375914D01*
X125290342Y-117471152D01*
X125242723Y-117518771D01*
X125147485Y-117566390D01*
X124766533Y-117566390D01*
X125623676Y-117042580D02*
X125957009Y-118042580D01*
X126290342Y-117042580D01*
X127147485Y-118042580D02*
X126576057Y-118042580D01*
X126861771Y-118042580D02*
X126861771Y-117042580D01*
X126766533Y-117185438D01*
X126671295Y-117280676D01*
X126576057Y-117328295D01*
%TO.C,J8*%
X168379180Y-46693333D02*
X169093466Y-46693333D01*
X169236323Y-46740952D01*
X169331561Y-46836190D01*
X169379180Y-46979047D01*
X169379180Y-47074285D01*
X168807752Y-46074285D02*
X168760133Y-46169523D01*
X168712514Y-46217142D01*
X168617276Y-46264761D01*
X168569657Y-46264761D01*
X168474419Y-46217142D01*
X168426800Y-46169523D01*
X168379180Y-46074285D01*
X168379180Y-45883809D01*
X168426800Y-45788571D01*
X168474419Y-45740952D01*
X168569657Y-45693333D01*
X168617276Y-45693333D01*
X168712514Y-45740952D01*
X168760133Y-45788571D01*
X168807752Y-45883809D01*
X168807752Y-46074285D01*
X168855371Y-46169523D01*
X168902990Y-46217142D01*
X168998228Y-46264761D01*
X169188704Y-46264761D01*
X169283942Y-46217142D01*
X169331561Y-46169523D01*
X169379180Y-46074285D01*
X169379180Y-45883809D01*
X169331561Y-45788571D01*
X169283942Y-45740952D01*
X169188704Y-45693333D01*
X168998228Y-45693333D01*
X168902990Y-45740952D01*
X168855371Y-45788571D01*
X168807752Y-45883809D01*
%TO.C,U8*%
X100533295Y-142561780D02*
X100533295Y-143371304D01*
X100580914Y-143466542D01*
X100628533Y-143514161D01*
X100723771Y-143561780D01*
X100914247Y-143561780D01*
X101009485Y-143514161D01*
X101057104Y-143466542D01*
X101104723Y-143371304D01*
X101104723Y-142561780D01*
X101723771Y-142990352D02*
X101628533Y-142942733D01*
X101580914Y-142895114D01*
X101533295Y-142799876D01*
X101533295Y-142752257D01*
X101580914Y-142657019D01*
X101628533Y-142609400D01*
X101723771Y-142561780D01*
X101914247Y-142561780D01*
X102009485Y-142609400D01*
X102057104Y-142657019D01*
X102104723Y-142752257D01*
X102104723Y-142799876D01*
X102057104Y-142895114D01*
X102009485Y-142942733D01*
X101914247Y-142990352D01*
X101723771Y-142990352D01*
X101628533Y-143037971D01*
X101580914Y-143085590D01*
X101533295Y-143180828D01*
X101533295Y-143371304D01*
X101580914Y-143466542D01*
X101628533Y-143514161D01*
X101723771Y-143561780D01*
X101914247Y-143561780D01*
X102009485Y-143514161D01*
X102057104Y-143466542D01*
X102104723Y-143371304D01*
X102104723Y-143180828D01*
X102057104Y-143085590D01*
X102009485Y-143037971D01*
X101914247Y-142990352D01*
%TO.C,J4*%
X37895380Y-121872333D02*
X38609666Y-121872333D01*
X38752523Y-121919952D01*
X38847761Y-122015190D01*
X38895380Y-122158047D01*
X38895380Y-122253285D01*
X38228714Y-120967571D02*
X38895380Y-120967571D01*
X37847761Y-121205666D02*
X38562047Y-121443761D01*
X38562047Y-120824714D01*
%TO.C,C13*%
X81259442Y-59898342D02*
X81211823Y-59945961D01*
X81068966Y-59993580D01*
X80973728Y-59993580D01*
X80830871Y-59945961D01*
X80735633Y-59850723D01*
X80688014Y-59755485D01*
X80640395Y-59565009D01*
X80640395Y-59422152D01*
X80688014Y-59231676D01*
X80735633Y-59136438D01*
X80830871Y-59041200D01*
X80973728Y-58993580D01*
X81068966Y-58993580D01*
X81211823Y-59041200D01*
X81259442Y-59088819D01*
X82211823Y-59993580D02*
X81640395Y-59993580D01*
X81926109Y-59993580D02*
X81926109Y-58993580D01*
X81830871Y-59136438D01*
X81735633Y-59231676D01*
X81640395Y-59279295D01*
X82545157Y-58993580D02*
X83164204Y-58993580D01*
X82830871Y-59374533D01*
X82973728Y-59374533D01*
X83068966Y-59422152D01*
X83116585Y-59469771D01*
X83164204Y-59565009D01*
X83164204Y-59803104D01*
X83116585Y-59898342D01*
X83068966Y-59945961D01*
X82973728Y-59993580D01*
X82688014Y-59993580D01*
X82592776Y-59945961D01*
X82545157Y-59898342D01*
%TO.C,J6*%
X139235380Y-46850133D02*
X139949666Y-46850133D01*
X140092523Y-46897752D01*
X140187761Y-46992990D01*
X140235380Y-47135847D01*
X140235380Y-47231085D01*
X139235380Y-45945371D02*
X139235380Y-46135847D01*
X139283000Y-46231085D01*
X139330619Y-46278704D01*
X139473476Y-46373942D01*
X139663952Y-46421561D01*
X140044904Y-46421561D01*
X140140142Y-46373942D01*
X140187761Y-46326323D01*
X140235380Y-46231085D01*
X140235380Y-46040609D01*
X140187761Y-45945371D01*
X140140142Y-45897752D01*
X140044904Y-45850133D01*
X139806809Y-45850133D01*
X139711571Y-45897752D01*
X139663952Y-45945371D01*
X139616333Y-46040609D01*
X139616333Y-46231085D01*
X139663952Y-46326323D01*
X139711571Y-46373942D01*
X139806809Y-46421561D01*
D11*
%TO.C,R95*%
X102846136Y-114396600D02*
X103300264Y-114396600D01*
X102846136Y-115866600D02*
X103300264Y-115866600D01*
%TO.C,R61*%
X145388000Y-40066736D02*
X145388000Y-40520864D01*
X143918000Y-40066736D02*
X143918000Y-40520864D01*
%TO.C,R111*%
X139676136Y-147470800D02*
X140130264Y-147470800D01*
X139676136Y-146000800D02*
X140130264Y-146000800D01*
%TO.C,R49*%
X113590400Y-35538936D02*
X113590400Y-35993064D01*
X115060400Y-35538936D02*
X115060400Y-35993064D01*
%TO.C,R24*%
X68299000Y-128735064D02*
X68299000Y-128280936D01*
X66829000Y-128735064D02*
X66829000Y-128280936D01*
D12*
%TO.C,U2*%
X102158800Y-75700997D02*
X102158800Y-77879603D01*
X112166400Y-77879603D02*
X112166400Y-75700997D01*
X102158800Y-77095100D02*
G75*
G03*
X102158800Y-76485500I0J304800D01*
G01*
G36*
X110528100Y-73081900D02*
G01*
X110147100Y-73081900D01*
X110147100Y-72827900D01*
X110528100Y-72827900D01*
X110528100Y-73081900D01*
G37*
D11*
%TO.C,R58*%
X141403400Y-52916064D02*
X141403400Y-52461936D01*
X142873400Y-52916064D02*
X142873400Y-52461936D01*
%TO.C,C45*%
X172390348Y-83944700D02*
X172912852Y-83944700D01*
X172390348Y-85414700D02*
X172912852Y-85414700D01*
%TO.C,R22*%
X62965000Y-128407936D02*
X62965000Y-128862064D01*
X61495000Y-128407936D02*
X61495000Y-128862064D01*
%TO.C,R120*%
X175601800Y-53114864D02*
X175601800Y-52660736D01*
X177071800Y-53114864D02*
X177071800Y-52660736D01*
%TO.C,R31*%
X110923400Y-53014136D02*
X110923400Y-53468264D01*
X112393400Y-53014136D02*
X112393400Y-53468264D01*
%TO.C,X1*%
X151711000Y-93455000D02*
X151711000Y-93515000D01*
X151711000Y-100855000D02*
X146231000Y-100855000D01*
X146231000Y-93455000D02*
X151711000Y-93455000D01*
X146231000Y-93515000D02*
X146231000Y-93455000D01*
X145771000Y-93515000D02*
X146231000Y-93515000D01*
X146231000Y-98595000D02*
X146231000Y-95715000D01*
X146231000Y-100855000D02*
X146231000Y-100795000D01*
X151711000Y-95715000D02*
X151711000Y-98595000D01*
X146231000Y-95715000D02*
X145771000Y-95715000D01*
X151711000Y-100795000D02*
X151711000Y-100855000D01*
%TO.C,R69*%
X145388000Y-35520136D02*
X145388000Y-35974264D01*
X143918000Y-35520136D02*
X143918000Y-35974264D01*
%TO.C,R62*%
X150468000Y-40546264D02*
X150468000Y-40092136D01*
X148998000Y-40546264D02*
X148998000Y-40092136D01*
%TO.C,R3*%
X52240000Y-50572936D02*
X52240000Y-51027064D01*
X53710000Y-50572936D02*
X53710000Y-51027064D01*
%TO.C,R114*%
X171876300Y-140361936D02*
X171876300Y-140816064D01*
X173346300Y-140361936D02*
X173346300Y-140816064D01*
%TO.C,R101*%
X94918200Y-136764536D02*
X94918200Y-137218664D01*
X93448200Y-136764536D02*
X93448200Y-137218664D01*
%TO.C,R48*%
X116054200Y-58294264D02*
X116054200Y-57840136D01*
X117524200Y-58294264D02*
X117524200Y-57840136D01*
%TO.C,C36*%
X177696800Y-129296348D02*
X177696800Y-129818852D01*
X176226800Y-129296348D02*
X176226800Y-129818852D01*
%TO.C,R21*%
X58447000Y-115416064D02*
X58447000Y-114961936D01*
X59917000Y-115416064D02*
X59917000Y-114961936D01*
%TO.C,R104*%
X124331400Y-139872736D02*
X124331400Y-140326864D01*
X122861400Y-139872736D02*
X122861400Y-140326864D01*
%TO.C,R106*%
X116308200Y-150648936D02*
X116308200Y-151103064D01*
X117778200Y-150648936D02*
X117778200Y-151103064D01*
%TO.C,R57*%
X116308200Y-35993064D02*
X116308200Y-35538936D01*
X117778200Y-35993064D02*
X117778200Y-35538936D01*
%TO.C,C10*%
X82036552Y-106783200D02*
X81514048Y-106783200D01*
X82036552Y-108253200D02*
X81514048Y-108253200D01*
%TO.C,R119*%
X174531800Y-39198736D02*
X174531800Y-39652864D01*
X173061800Y-39198736D02*
X173061800Y-39652864D01*
%TO.C,R99*%
X157529200Y-119692936D02*
X157529200Y-120147064D01*
X156059200Y-119692936D02*
X156059200Y-120147064D01*
%TO.C,C22*%
X150699800Y-119629448D02*
X150699800Y-120151952D01*
X152169800Y-119629448D02*
X152169800Y-120151952D01*
%TO.C,R2*%
X47487064Y-35787000D02*
X47032936Y-35787000D01*
X47487064Y-34317000D02*
X47032936Y-34317000D01*
%TO.C,C27*%
X111710800Y-136384148D02*
X111710800Y-136906652D01*
X113180800Y-136384148D02*
X113180800Y-136906652D01*
%TO.C,R50*%
X97051800Y-35993064D02*
X97051800Y-35538936D01*
X95581800Y-35993064D02*
X95581800Y-35538936D01*
%TO.C,C15*%
X112891848Y-117317600D02*
X113414352Y-117317600D01*
X112891848Y-118787600D02*
X113414352Y-118787600D01*
%TO.C,R200*%
X47439000Y-119361936D02*
X47439000Y-123716064D01*
X50859000Y-119361936D02*
X50859000Y-123716064D01*
%TO.C,J1*%
X30534000Y-50529000D02*
X38004000Y-50529000D01*
X35694000Y-44299000D02*
X31394000Y-44299000D01*
X38004000Y-50529000D02*
X38004000Y-40149000D01*
X35694000Y-43549000D02*
X35694000Y-44299000D01*
X37044000Y-41299000D02*
X37044000Y-44299000D01*
X36044000Y-44049000D02*
X36044000Y-43549000D01*
X36044000Y-49129000D02*
X36044000Y-48629000D01*
X31394000Y-42049000D02*
X31394000Y-41299000D01*
X36044000Y-48629000D02*
X35694000Y-48629000D01*
X35694000Y-49379000D02*
X31394000Y-49379000D01*
X36044000Y-41549000D02*
X37044000Y-41299000D01*
X37144000Y-39759000D02*
X38394000Y-39759000D01*
X36044000Y-46629000D02*
X37044000Y-46379000D01*
X35694000Y-47129000D02*
X36044000Y-47129000D01*
X31394000Y-47129000D02*
X31394000Y-46379000D01*
X38004000Y-40149000D02*
X30534000Y-40149000D01*
X35694000Y-41299000D02*
X35694000Y-42049000D01*
X37044000Y-46379000D02*
X37044000Y-49379000D01*
X30534000Y-40149000D02*
X30534000Y-50529000D01*
X35694000Y-42049000D02*
X36044000Y-42049000D01*
X31394000Y-46379000D02*
X35694000Y-46379000D01*
X37044000Y-49379000D02*
X36044000Y-49129000D01*
X31394000Y-41299000D02*
X35694000Y-41299000D01*
X31394000Y-49379000D02*
X31394000Y-48629000D01*
X38394000Y-39759000D02*
X38394000Y-41759000D01*
X35694000Y-48629000D02*
X35694000Y-49379000D01*
X35694000Y-46379000D02*
X35694000Y-47129000D01*
X36044000Y-47129000D02*
X36044000Y-46629000D01*
X37044000Y-44299000D02*
X36044000Y-44049000D01*
X36044000Y-42049000D02*
X36044000Y-41549000D01*
X31394000Y-44299000D02*
X31394000Y-43549000D01*
X36044000Y-43549000D02*
X35694000Y-43549000D01*
X31394156Y-43548647D02*
G75*
G03*
X31394000Y-42049000I-1700162J749647D01*
G01*
X31394156Y-48628647D02*
G75*
G03*
X31394000Y-47129000I-1700162J749647D01*
G01*
%TO.C,C31*%
X132157800Y-150970348D02*
X132157800Y-151492852D01*
X133627800Y-150970348D02*
X133627800Y-151492852D01*
%TO.C,R65*%
X146458000Y-52436536D02*
X146458000Y-52890664D01*
X147928000Y-52436536D02*
X147928000Y-52890664D01*
%TO.C,R37*%
X107389600Y-35538936D02*
X107389600Y-35993064D01*
X105919600Y-35538936D02*
X105919600Y-35993064D01*
%TO.C,U1*%
X44201000Y-144761000D02*
X44201000Y-143501000D01*
X44201000Y-137941000D02*
X44201000Y-139201000D01*
X38191000Y-137941000D02*
X44201000Y-137941000D01*
X40441000Y-144761000D02*
X44201000Y-144761000D01*
%TO.C,C51*%
X207129748Y-71655000D02*
X207652252Y-71655000D01*
X207129748Y-73125000D02*
X207652252Y-73125000D01*
%TO.C,R81*%
X153338200Y-35520136D02*
X153338200Y-35974264D01*
X151868200Y-35520136D02*
X151868200Y-35974264D01*
%TO.C,R4*%
X53710000Y-40359064D02*
X53710000Y-39904936D01*
X52240000Y-40359064D02*
X52240000Y-39904936D01*
%TO.C,R51*%
X95327800Y-57840136D02*
X95327800Y-58294264D01*
X96797800Y-57840136D02*
X96797800Y-58294264D01*
%TO.C,R12*%
X59082000Y-67701936D02*
X59082000Y-68156064D01*
X60552000Y-67701936D02*
X60552000Y-68156064D01*
%TO.C,R6*%
X59044000Y-39904936D02*
X59044000Y-40359064D01*
X57574000Y-39904936D02*
X57574000Y-40359064D01*
%TO.C,R64*%
X146458000Y-40520864D02*
X146458000Y-40066736D01*
X147928000Y-40520864D02*
X147928000Y-40066736D01*
%TO.C,C40*%
X173737600Y-108973252D02*
X173737600Y-108450748D01*
X175207600Y-108973252D02*
X175207600Y-108450748D01*
%TO.C,R5*%
X59044000Y-51027064D02*
X59044000Y-50572936D01*
X57574000Y-51027064D02*
X57574000Y-50572936D01*
%TO.C,R33*%
X108485000Y-53014136D02*
X108485000Y-53468264D01*
X109955000Y-53014136D02*
X109955000Y-53468264D01*
%TO.C,R68*%
X145388000Y-57488064D02*
X145388000Y-57033936D01*
X143918000Y-57488064D02*
X143918000Y-57033936D01*
%TO.C,R102*%
X96064400Y-136773936D02*
X96064400Y-137228064D01*
X97534400Y-136773936D02*
X97534400Y-137228064D01*
%TO.C,J3*%
X35697500Y-99446500D02*
X35697500Y-100196500D01*
X36047500Y-99446500D02*
X35697500Y-99446500D01*
X35697500Y-94366500D02*
X35697500Y-95116500D01*
X36047500Y-97946500D02*
X36047500Y-97446500D01*
X31397500Y-100196500D02*
X31397500Y-99446500D01*
X35697500Y-92116500D02*
X35697500Y-92866500D01*
X36047500Y-92866500D02*
X36047500Y-92366500D01*
X31397500Y-95116500D02*
X31397500Y-94366500D01*
X35697500Y-95116500D02*
X31397500Y-95116500D01*
X36047500Y-94866500D02*
X36047500Y-94366500D01*
X37047500Y-100196500D02*
X36047500Y-99946500D01*
X31397500Y-92866500D02*
X31397500Y-92116500D01*
X31397500Y-92116500D02*
X35697500Y-92116500D01*
X37047500Y-97196500D02*
X37047500Y-100196500D01*
X35697500Y-97946500D02*
X36047500Y-97946500D01*
X31397500Y-97946500D02*
X31397500Y-97196500D01*
X37147500Y-90576500D02*
X38397500Y-90576500D01*
X36047500Y-94366500D02*
X35697500Y-94366500D01*
X38397500Y-90576500D02*
X38397500Y-92576500D01*
X36047500Y-97446500D02*
X37047500Y-97196500D01*
X35697500Y-100196500D02*
X31397500Y-100196500D01*
X36047500Y-92366500D02*
X37047500Y-92116500D01*
X35697500Y-92866500D02*
X36047500Y-92866500D01*
X38007500Y-90966500D02*
X30537500Y-90966500D01*
X37047500Y-92116500D02*
X37047500Y-95116500D01*
X30537500Y-101346500D02*
X38007500Y-101346500D01*
X38007500Y-101346500D02*
X38007500Y-90966500D01*
X35697500Y-97196500D02*
X35697500Y-97946500D01*
X36047500Y-99946500D02*
X36047500Y-99446500D01*
X37047500Y-95116500D02*
X36047500Y-94866500D01*
X31397500Y-97196500D02*
X35697500Y-97196500D01*
X30537500Y-90966500D02*
X30537500Y-101346500D01*
X31397656Y-94366147D02*
G75*
G03*
X31397500Y-92866500I-1700162J749647D01*
G01*
X31397656Y-99446147D02*
G75*
G03*
X31397500Y-97946500I-1700162J749647D01*
G01*
%TO.C,R88*%
X154636800Y-57033936D02*
X154636800Y-57488064D01*
X156106800Y-57033936D02*
X156106800Y-57488064D01*
%TO.C,Q4*%
X180866300Y-144794800D02*
X181516300Y-144794800D01*
X180866300Y-147914800D02*
X180216300Y-147914800D01*
X180866300Y-147914800D02*
X181516300Y-147914800D01*
X180866300Y-144794800D02*
X179191300Y-144794800D01*
%TO.C,C50*%
X187601048Y-73125000D02*
X188123552Y-73125000D01*
X187601048Y-71655000D02*
X188123552Y-71655000D01*
%TO.C,U9*%
X123576400Y-149428200D02*
X123576400Y-151378200D01*
X123576400Y-149428200D02*
X123576400Y-147478200D01*
X128696400Y-149428200D02*
X128696400Y-145978200D01*
X128696400Y-149428200D02*
X128696400Y-151378200D01*
%TO.C,R78*%
X158926200Y-57513464D02*
X158926200Y-57059336D01*
X157456200Y-57513464D02*
X157456200Y-57059336D01*
%TO.C,R73*%
X147928000Y-57033936D02*
X147928000Y-57488064D01*
X146458000Y-57033936D02*
X146458000Y-57488064D01*
%TO.C,R105*%
X133605600Y-142673336D02*
X133605600Y-143127464D01*
X135075600Y-142673336D02*
X135075600Y-143127464D01*
%TO.C,Q2*%
X166358300Y-144805000D02*
X164683300Y-144805000D01*
X166358300Y-147925000D02*
X165708300Y-147925000D01*
X166358300Y-147925000D02*
X167008300Y-147925000D01*
X166358300Y-144805000D02*
X167008300Y-144805000D01*
%TO.C,J5*%
X105293000Y-46515200D02*
X102693000Y-46515200D01*
X105293000Y-49115200D02*
X112973000Y-49115200D01*
X104023000Y-49115200D02*
X102693000Y-49115200D01*
X102693000Y-49115200D02*
X102693000Y-47785200D01*
X105293000Y-49115200D02*
X105293000Y-46515200D01*
X102693000Y-46515200D02*
X102693000Y-43915200D01*
X102693000Y-43915200D02*
X112973000Y-43915200D01*
X112973000Y-49115200D02*
X112973000Y-43915200D01*
%TO.C,R113*%
X166155800Y-140412736D02*
X166155800Y-140866864D01*
X164685800Y-140412736D02*
X164685800Y-140866864D01*
%TO.C,R10*%
X54837000Y-68172064D02*
X54837000Y-67717936D01*
X53367000Y-68172064D02*
X53367000Y-67717936D01*
D12*
%TO.C,U3*%
X148945600Y-78152903D02*
X148945600Y-75974297D01*
X138938000Y-75974297D02*
X138938000Y-78152903D01*
X138938000Y-77368400D02*
G75*
G03*
X138938000Y-76758800I0J304800D01*
G01*
G36*
X147307300Y-73355200D02*
G01*
X146926300Y-73355200D01*
X146926300Y-73101200D01*
X147307300Y-73101200D01*
X147307300Y-73355200D01*
G37*
D11*
%TO.C,R27*%
X103354200Y-39806136D02*
X103354200Y-40260264D01*
X104824200Y-39806136D02*
X104824200Y-40260264D01*
%TO.C,R13*%
X50859000Y-94088936D02*
X50859000Y-98443064D01*
X47439000Y-94088936D02*
X47439000Y-98443064D01*
%TO.C,R44*%
X98121800Y-35538936D02*
X98121800Y-35993064D01*
X99591800Y-35538936D02*
X99591800Y-35993064D01*
%TO.C,R71*%
X148998000Y-57033936D02*
X148998000Y-57488064D01*
X150468000Y-57033936D02*
X150468000Y-57488064D01*
%TO.C,R23*%
X62965000Y-115511064D02*
X62965000Y-115056936D01*
X61495000Y-115511064D02*
X61495000Y-115056936D01*
%TO.C,R115*%
X179191500Y-140816064D02*
X179191500Y-140361936D01*
X180661500Y-140816064D02*
X180661500Y-140361936D01*
%TO.C,R112*%
X158386600Y-140311136D02*
X158386600Y-140765264D01*
X159856600Y-140311136D02*
X159856600Y-140765264D01*
%TO.C,C19*%
X122353400Y-106539148D02*
X122353400Y-107061652D01*
X123823400Y-106539148D02*
X123823400Y-107061652D01*
%TO.C,R36*%
X105843400Y-58294264D02*
X105843400Y-57840136D01*
X107313400Y-58294264D02*
X107313400Y-57840136D01*
%TO.C,R122*%
X179611800Y-53064064D02*
X179611800Y-52609936D01*
X178141800Y-53064064D02*
X178141800Y-52609936D01*
%TO.C,C20*%
X145543600Y-119654848D02*
X145543600Y-120177352D01*
X147013600Y-119654848D02*
X147013600Y-120177352D01*
%TO.C,R20*%
X58320000Y-128751064D02*
X58320000Y-128296936D01*
X59790000Y-128751064D02*
X59790000Y-128296936D01*
%TO.C,J9*%
X76809600Y-154644400D02*
X76809600Y-152044400D01*
X99729600Y-154644400D02*
X99729600Y-149444400D01*
X74209600Y-152044400D02*
X74209600Y-149444400D01*
X74209600Y-154644400D02*
X74209600Y-153314400D01*
X76809600Y-152044400D02*
X74209600Y-152044400D01*
X75539600Y-154644400D02*
X74209600Y-154644400D01*
X76809600Y-154644400D02*
X99729600Y-154644400D01*
X74209600Y-149444400D02*
X99729600Y-149444400D01*
%TO.C,R131*%
X201296600Y-55340064D02*
X201296600Y-54885936D01*
X202766600Y-55340064D02*
X202766600Y-54885936D01*
%TO.C,R85*%
X138507800Y-57033936D02*
X138507800Y-57488064D01*
X139977800Y-57033936D02*
X139977800Y-57488064D01*
%TO.C,R97*%
X121870736Y-114472800D02*
X122324864Y-114472800D01*
X121870736Y-115942800D02*
X122324864Y-115942800D01*
%TO.C,C14*%
X82163552Y-62587200D02*
X81641048Y-62587200D01*
X82163552Y-64057200D02*
X81641048Y-64057200D01*
%TO.C,R52*%
X102157200Y-35993064D02*
X102157200Y-35538936D01*
X100687200Y-35993064D02*
X100687200Y-35538936D01*
%TO.C,R15*%
X59282000Y-89508064D02*
X59282000Y-89053936D01*
X57812000Y-89508064D02*
X57812000Y-89053936D01*
%TO.C,C8*%
X131760952Y-79275000D02*
X131238448Y-79275000D01*
X131760952Y-80745000D02*
X131238448Y-80745000D01*
%TO.C,R84*%
X138457000Y-35974264D02*
X138457000Y-35520136D01*
X139927000Y-35974264D02*
X139927000Y-35520136D01*
%TO.C,R35*%
X104824200Y-35538936D02*
X104824200Y-35993064D01*
X103354200Y-35538936D02*
X103354200Y-35993064D01*
%TO.C,R109*%
X173699664Y-151865000D02*
X173245536Y-151865000D01*
X173699664Y-150395000D02*
X173245536Y-150395000D01*
%TO.C,R45*%
X99464800Y-58294264D02*
X99464800Y-57840136D01*
X97994800Y-58294264D02*
X97994800Y-57840136D01*
%TO.C,R82*%
X134135800Y-35974264D02*
X134135800Y-35520136D01*
X132665800Y-35974264D02*
X132665800Y-35520136D01*
%TO.C,C25*%
X107262600Y-136358748D02*
X107262600Y-136881252D01*
X105792600Y-136358748D02*
X105792600Y-136881252D01*
%TO.C,J7*%
X56769000Y-140208000D02*
X56769000Y-137608000D01*
X56769000Y-137608000D02*
X59369000Y-137608000D01*
X54169000Y-147888000D02*
X59369000Y-147888000D01*
X54169000Y-138938000D02*
X54169000Y-137608000D01*
X54169000Y-140208000D02*
X56769000Y-140208000D01*
X59369000Y-137608000D02*
X59369000Y-147888000D01*
X54169000Y-137608000D02*
X55499000Y-137608000D01*
X54169000Y-140208000D02*
X54169000Y-147888000D01*
%TO.C,R124*%
X193498800Y-54885936D02*
X193498800Y-55340064D01*
X194968800Y-54885936D02*
X194968800Y-55340064D01*
%TO.C,C28*%
X132307000Y-135077852D02*
X132307000Y-134555348D01*
X130837000Y-135077852D02*
X130837000Y-134555348D01*
%TO.C,R75*%
X131595800Y-57513464D02*
X131595800Y-57059336D01*
X130125800Y-57513464D02*
X130125800Y-57059336D01*
%TO.C,R16*%
X66521000Y-103531936D02*
X66521000Y-103986064D01*
X65051000Y-103531936D02*
X65051000Y-103986064D01*
%TO.C,R14*%
X57685000Y-104002064D02*
X57685000Y-103547936D01*
X59155000Y-104002064D02*
X59155000Y-103547936D01*
%TO.C,U100*%
X126816800Y-133070600D02*
X126816800Y-129620600D01*
X126816800Y-133070600D02*
X126816800Y-135020600D01*
X121696800Y-133070600D02*
X121696800Y-135020600D01*
X121696800Y-133070600D02*
X121696800Y-131120600D01*
%TO.C,R66*%
X142873400Y-57488064D02*
X142873400Y-57033936D01*
X141403400Y-57488064D02*
X141403400Y-57033936D01*
%TO.C,R17*%
X65051000Y-89635064D02*
X65051000Y-89180936D01*
X66521000Y-89635064D02*
X66521000Y-89180936D01*
%TO.C,U12*%
X172720000Y-89896700D02*
X169270000Y-89896700D01*
X172720000Y-89896700D02*
X174670000Y-89896700D01*
X172720000Y-98766700D02*
X170770000Y-98766700D01*
X172720000Y-98766700D02*
X174670000Y-98766700D01*
%TO.C,C43*%
X172712748Y-69412700D02*
X173235252Y-69412700D01*
X172712748Y-67942700D02*
X173235252Y-67942700D01*
%TO.C,C48*%
X196872048Y-86764800D02*
X197394552Y-86764800D01*
X196872048Y-85294800D02*
X197394552Y-85294800D01*
%TO.C,Q1*%
X159985200Y-147813200D02*
X159335200Y-147813200D01*
X159985200Y-147813200D02*
X160635200Y-147813200D01*
X159985200Y-144693200D02*
X158310200Y-144693200D01*
X159985200Y-144693200D02*
X160635200Y-144693200D01*
%TO.C,R89*%
X156132200Y-35974264D02*
X156132200Y-35520136D01*
X154662200Y-35974264D02*
X154662200Y-35520136D01*
%TO.C,R1*%
X47032936Y-54891000D02*
X47487064Y-54891000D01*
X47032936Y-56361000D02*
X47487064Y-56361000D01*
%TO.C,C17*%
X112921148Y-124248600D02*
X113443652Y-124248600D01*
X112921148Y-122778600D02*
X113443652Y-122778600D01*
%TO.C,R11*%
X59082000Y-78062064D02*
X59082000Y-77607936D01*
X60552000Y-78062064D02*
X60552000Y-77607936D01*
%TO.C,R63*%
X150468000Y-52436536D02*
X150468000Y-52890664D01*
X148998000Y-52436536D02*
X148998000Y-52890664D01*
%TO.C,C9*%
X81909552Y-102919200D02*
X81387048Y-102919200D01*
X81909552Y-101449200D02*
X81387048Y-101449200D01*
D12*
%TO.C,U5*%
X80685997Y-78232000D02*
X82864603Y-78232000D01*
X82864603Y-68224400D02*
X80685997Y-68224400D01*
X81470500Y-68224400D02*
G75*
G03*
X82080100Y-68224400I304800J0D01*
G01*
G36*
X85737700Y-76593700D02*
G01*
X85483700Y-76593700D01*
X85483700Y-76212700D01*
X85737700Y-76212700D01*
X85737700Y-76593700D01*
G37*
D11*
%TO.C,R126*%
X188060064Y-76938200D02*
X187605936Y-76938200D01*
X188060064Y-78408200D02*
X187605936Y-78408200D01*
%TO.C,R34*%
X104748000Y-58294264D02*
X104748000Y-57840136D01*
X103278000Y-58294264D02*
X103278000Y-57840136D01*
%TO.C,R118*%
X173061800Y-53140264D02*
X173061800Y-52686136D01*
X174531800Y-53140264D02*
X174531800Y-52686136D01*
%TO.C,C44*%
X172411848Y-87751500D02*
X172934352Y-87751500D01*
X172411848Y-86281500D02*
X172934352Y-86281500D01*
%TO.C,R116*%
X170471000Y-53140264D02*
X170471000Y-52686136D01*
X171941000Y-53140264D02*
X171941000Y-52686136D01*
%TO.C,R94*%
X102871536Y-100452000D02*
X103325664Y-100452000D01*
X102871536Y-101922000D02*
X103325664Y-101922000D01*
%TO.C,R38*%
X110923400Y-35993064D02*
X110923400Y-35538936D01*
X112393400Y-35993064D02*
X112393400Y-35538936D01*
%TO.C,R92*%
X56234000Y-152410936D02*
X56234000Y-152865064D01*
X54764000Y-152410936D02*
X54764000Y-152865064D01*
%TO.C,R56*%
X113514200Y-57840136D02*
X113514200Y-58294264D01*
X114984200Y-57840136D02*
X114984200Y-58294264D01*
%TO.C,R46*%
X121134200Y-58294264D02*
X121134200Y-57840136D01*
X122604200Y-58294264D02*
X122604200Y-57840136D01*
%TO.C,C42*%
X172699148Y-66542500D02*
X173221652Y-66542500D01*
X172699148Y-65072500D02*
X173221652Y-65072500D01*
%TO.C,C6*%
X131760952Y-75411000D02*
X131238448Y-75411000D01*
X131760952Y-73941000D02*
X131238448Y-73941000D01*
%TO.C,R86*%
X160250200Y-57059336D02*
X160250200Y-57513464D01*
X161720200Y-57059336D02*
X161720200Y-57513464D01*
%TO.C,C2*%
X33154252Y-142086000D02*
X32631748Y-142086000D01*
X33154252Y-140616000D02*
X32631748Y-140616000D01*
%TO.C,C49*%
X196846648Y-83716800D02*
X197369152Y-83716800D01*
X196846648Y-82246800D02*
X197369152Y-82246800D01*
%TO.C,R59*%
X142848000Y-40066736D02*
X142848000Y-40520864D01*
X141378000Y-40066736D02*
X141378000Y-40520864D01*
%TO.C,J10*%
X203244600Y-48751800D02*
X203244600Y-46091800D01*
X195564600Y-48751800D02*
X195564600Y-46091800D01*
X195564600Y-48751800D02*
X203244600Y-48751800D01*
X194294600Y-48751800D02*
X192964600Y-48751800D01*
X192964600Y-48751800D02*
X192964600Y-47421800D01*
X195564600Y-46091800D02*
X203244600Y-46091800D01*
%TO.C,R127*%
X207062336Y-76887400D02*
X207516464Y-76887400D01*
X207062336Y-78357400D02*
X207516464Y-78357400D01*
%TO.C,U7*%
X153822400Y-111360400D02*
X151622400Y-111360400D01*
X153822400Y-111360400D02*
X156022400Y-111360400D01*
X153822400Y-104590400D02*
X156022400Y-104590400D01*
X153822400Y-104590400D02*
X150222400Y-104590400D01*
%TO.C,R80*%
X153338200Y-57488064D02*
X153338200Y-57033936D01*
X151868200Y-57488064D02*
X151868200Y-57033936D01*
%TO.C,R25*%
X66829000Y-115072936D02*
X66829000Y-115527064D01*
X68299000Y-115072936D02*
X68299000Y-115527064D01*
%TO.C,C16*%
X112921148Y-121454600D02*
X113443652Y-121454600D01*
X112921148Y-119984600D02*
X113443652Y-119984600D01*
%TO.C,R90*%
X48795000Y-152553936D02*
X48795000Y-153008064D01*
X50265000Y-152553936D02*
X50265000Y-153008064D01*
%TO.C,R67*%
X142848000Y-35520136D02*
X142848000Y-35974264D01*
X141378000Y-35520136D02*
X141378000Y-35974264D01*
%TO.C,R87*%
X160224800Y-35974264D02*
X160224800Y-35520136D01*
X161694800Y-35974264D02*
X161694800Y-35520136D01*
%TO.C,R103*%
X109145336Y-142435000D02*
X109599464Y-142435000D01*
X109145336Y-140965000D02*
X109599464Y-140965000D01*
D12*
%TO.C,U10*%
X177469800Y-120097103D02*
X177469800Y-117918497D01*
X167462200Y-117918497D02*
X167462200Y-120097103D01*
X177469800Y-118703000D02*
G75*
G03*
X177469800Y-119312600I0J-304800D01*
G01*
G36*
X169481500Y-122970200D02*
G01*
X169100500Y-122970200D01*
X169100500Y-122716200D01*
X169481500Y-122716200D01*
X169481500Y-122970200D01*
G37*
D11*
%TO.C,C3*%
X96404152Y-80770400D02*
X95881648Y-80770400D01*
X96404152Y-79300400D02*
X95881648Y-79300400D01*
%TO.C,R83*%
X132919800Y-57059336D02*
X132919800Y-57513464D01*
X134389800Y-57059336D02*
X134389800Y-57513464D01*
%TO.C,R42*%
X94511800Y-35538936D02*
X94511800Y-35993064D01*
X93041800Y-35538936D02*
X93041800Y-35993064D01*
%TO.C,C7*%
X131735552Y-76633400D02*
X131213048Y-76633400D01*
X131735552Y-78103400D02*
X131213048Y-78103400D01*
%TO.C,R43*%
X92787800Y-58319664D02*
X92787800Y-57865536D01*
X94257800Y-58319664D02*
X94257800Y-57865536D01*
%TO.C,R98*%
X158599200Y-119711736D02*
X158599200Y-120165864D01*
X160069200Y-119711736D02*
X160069200Y-120165864D01*
%TO.C,C34*%
X172413600Y-129224048D02*
X172413600Y-129746552D01*
X170943600Y-129224048D02*
X170943600Y-129746552D01*
%TO.C,R47*%
X119026000Y-35564336D02*
X119026000Y-36018464D01*
X120496000Y-35564336D02*
X120496000Y-36018464D01*
%TO.C,R9*%
X54837000Y-77623936D02*
X54837000Y-78078064D01*
X53367000Y-77623936D02*
X53367000Y-78078064D01*
%TO.C,R128*%
X189812600Y-54830736D02*
X189812600Y-55284864D01*
X188342600Y-54830736D02*
X188342600Y-55284864D01*
%TO.C,C5*%
X96433452Y-73610800D02*
X95910948Y-73610800D01*
X96433452Y-75080800D02*
X95910948Y-75080800D01*
%TO.C,C32*%
X181611600Y-120526352D02*
X181611600Y-120003848D01*
X183081600Y-120526352D02*
X183081600Y-120003848D01*
%TO.C,R129*%
X206932200Y-54839036D02*
X206932200Y-55293164D01*
X205462200Y-54839036D02*
X205462200Y-55293164D01*
%TO.C,C37*%
X168378200Y-129224048D02*
X168378200Y-129746552D01*
X169848200Y-129224048D02*
X169848200Y-129746552D01*
%TO.C,R93*%
X60352000Y-152553936D02*
X60352000Y-153008064D01*
X61822000Y-152553936D02*
X61822000Y-153008064D01*
%TO.C,R19*%
X61241000Y-89053936D02*
X61241000Y-89508064D01*
X62711000Y-89053936D02*
X62711000Y-89508064D01*
%TO.C,R18*%
X62711000Y-103986064D02*
X62711000Y-103531936D01*
X61241000Y-103986064D02*
X61241000Y-103531936D01*
%TO.C,R74*%
X129871800Y-35520136D02*
X129871800Y-35974264D01*
X131341800Y-35520136D02*
X131341800Y-35974264D01*
%TO.C,R26*%
X104748000Y-53468264D02*
X104748000Y-53014136D01*
X103278000Y-53468264D02*
X103278000Y-53014136D01*
%TO.C,C21*%
X148134400Y-119626748D02*
X148134400Y-120149252D01*
X149604400Y-119626748D02*
X149604400Y-120149252D01*
%TO.C,R125*%
X197207200Y-54840136D02*
X197207200Y-55294264D01*
X198677200Y-54840136D02*
X198677200Y-55294264D01*
%TO.C,R8*%
X47979064Y-64035000D02*
X47524936Y-64035000D01*
X47979064Y-65505000D02*
X47524936Y-65505000D01*
%TO.C,R55*%
X121794600Y-36018464D02*
X121794600Y-35564336D01*
X123264600Y-36018464D02*
X123264600Y-35564336D01*
%TO.C,C38*%
X177773000Y-109020152D02*
X177773000Y-108497648D01*
X176303000Y-109020152D02*
X176303000Y-108497648D01*
%TO.C,R100*%
X153671600Y-119686336D02*
X153671600Y-120140464D01*
X155141600Y-119686336D02*
X155141600Y-120140464D01*
%TO.C,C30*%
X136447200Y-150970348D02*
X136447200Y-151492852D01*
X134977200Y-150970348D02*
X134977200Y-151492852D01*
%TO.C,R76*%
X135612200Y-35520136D02*
X135612200Y-35974264D01*
X137082200Y-35520136D02*
X137082200Y-35974264D01*
%TO.C,R91*%
X66575000Y-152426936D02*
X66575000Y-152881064D01*
X68045000Y-152426936D02*
X68045000Y-152881064D01*
%TO.C,C33*%
X186971000Y-120526352D02*
X186971000Y-120003848D01*
X188441000Y-120526352D02*
X188441000Y-120003848D01*
%TO.C,Q3*%
X173553400Y-144794800D02*
X171878400Y-144794800D01*
X173553400Y-147914800D02*
X174203400Y-147914800D01*
X173553400Y-147914800D02*
X172903400Y-147914800D01*
X173553400Y-144794800D02*
X174203400Y-144794800D01*
%TO.C,R107*%
X160186864Y-150445800D02*
X159732736Y-150445800D01*
X160186864Y-151915800D02*
X159732736Y-151915800D01*
%TO.C,R110*%
X181040264Y-151814200D02*
X180586136Y-151814200D01*
X181040264Y-150344200D02*
X180586136Y-150344200D01*
%TO.C,R121*%
X177071800Y-39224136D02*
X177071800Y-39678264D01*
X175601800Y-39224136D02*
X175601800Y-39678264D01*
D12*
%TO.C,U4*%
X80812997Y-128143000D02*
X82991603Y-128143000D01*
X82991603Y-118135400D02*
X80812997Y-118135400D01*
X81597500Y-118135400D02*
G75*
G03*
X82207100Y-118135400I304800J0D01*
G01*
G36*
X85864700Y-126504700D02*
G01*
X85610700Y-126504700D01*
X85610700Y-126123700D01*
X85864700Y-126123700D01*
X85864700Y-126504700D01*
G37*
D11*
%TO.C,R72*%
X147928000Y-35974264D02*
X147928000Y-35520136D01*
X146458000Y-35974264D02*
X146458000Y-35520136D01*
%TO.C,C18*%
X102843000Y-107072548D02*
X102843000Y-107595052D01*
X101373000Y-107072548D02*
X101373000Y-107595052D01*
%TO.C,C29*%
X122867052Y-125579200D02*
X122344548Y-125579200D01*
X122867052Y-127049200D02*
X122344548Y-127049200D01*
%TO.C,R53*%
X100661800Y-57840136D02*
X100661800Y-58294264D01*
X102131800Y-57840136D02*
X102131800Y-58294264D01*
%TO.C,C12*%
X82163552Y-52881200D02*
X81641048Y-52881200D01*
X82163552Y-51411200D02*
X81641048Y-51411200D01*
%TO.C,R32*%
X109828000Y-40336464D02*
X109828000Y-39882336D01*
X108358000Y-40336464D02*
X108358000Y-39882336D01*
%TO.C,R30*%
X112393400Y-40336464D02*
X112393400Y-39882336D01*
X110923400Y-40336464D02*
X110923400Y-39882336D01*
%TO.C,R77*%
X135739200Y-57488064D02*
X135739200Y-57033936D01*
X137209200Y-57488064D02*
X137209200Y-57033936D01*
%TO.C,R96*%
X121870736Y-102023600D02*
X122324864Y-102023600D01*
X121870736Y-100553600D02*
X122324864Y-100553600D01*
%TO.C,C41*%
X171146800Y-108922452D02*
X171146800Y-108399948D01*
X172616800Y-108922452D02*
X172616800Y-108399948D01*
%TO.C,C39*%
X168403600Y-108922452D02*
X168403600Y-108399948D01*
X169873600Y-108922452D02*
X169873600Y-108399948D01*
%TO.C,R54*%
X118594200Y-57840136D02*
X118594200Y-58294264D01*
X120064200Y-57840136D02*
X120064200Y-58294264D01*
%TO.C,R40*%
X109853400Y-35993064D02*
X109853400Y-35538936D01*
X108383400Y-35993064D02*
X108383400Y-35538936D01*
%TO.C,C35*%
X173585200Y-129249448D02*
X173585200Y-129771952D01*
X175055200Y-129249448D02*
X175055200Y-129771952D01*
%TO.C,R123*%
X178192600Y-39198736D02*
X178192600Y-39652864D01*
X179662600Y-39198736D02*
X179662600Y-39652864D01*
%TO.C,C24*%
X157665052Y-95350000D02*
X157142548Y-95350000D01*
X157665052Y-93880000D02*
X157142548Y-93880000D01*
%TO.C,R117*%
X171991800Y-39198736D02*
X171991800Y-39652864D01*
X170521800Y-39198736D02*
X170521800Y-39652864D01*
%TO.C,J11*%
X193751200Y-96249800D02*
X192421200Y-96249800D01*
X202701200Y-96249800D02*
X202701200Y-93589800D01*
X195021200Y-93589800D02*
X202701200Y-93589800D01*
X195021200Y-96249800D02*
X202701200Y-96249800D01*
X195021200Y-96249800D02*
X195021200Y-93589800D01*
X192421200Y-96249800D02*
X192421200Y-94919800D01*
%TO.C,R39*%
X110948800Y-57840136D02*
X110948800Y-58294264D01*
X112418800Y-57840136D02*
X112418800Y-58294264D01*
%TO.C,R29*%
X107338800Y-39882336D02*
X107338800Y-40336464D01*
X105868800Y-39882336D02*
X105868800Y-40336464D01*
%TO.C,R41*%
X108485000Y-57840136D02*
X108485000Y-58294264D01*
X109955000Y-57840136D02*
X109955000Y-58294264D01*
%TO.C,J2*%
X35805000Y-77827000D02*
X31505000Y-77827000D01*
X31505000Y-77827000D02*
X31505000Y-77077000D01*
X37155000Y-77827000D02*
X36155000Y-77577000D01*
X36155000Y-72497000D02*
X36155000Y-71997000D01*
X31505000Y-70497000D02*
X31505000Y-69747000D01*
X31505000Y-72747000D02*
X31505000Y-71997000D01*
X37155000Y-69747000D02*
X37155000Y-72747000D01*
X36155000Y-75077000D02*
X37155000Y-74827000D01*
X38505000Y-68207000D02*
X38505000Y-70207000D01*
X35805000Y-74827000D02*
X35805000Y-75577000D01*
X37155000Y-72747000D02*
X36155000Y-72497000D01*
X35805000Y-70497000D02*
X36155000Y-70497000D01*
X36155000Y-69997000D02*
X37155000Y-69747000D01*
X35805000Y-75577000D02*
X36155000Y-75577000D01*
X37255000Y-68207000D02*
X38505000Y-68207000D01*
X31505000Y-69747000D02*
X35805000Y-69747000D01*
X36155000Y-75577000D02*
X36155000Y-75077000D01*
X35805000Y-69747000D02*
X35805000Y-70497000D01*
X35805000Y-72747000D02*
X31505000Y-72747000D01*
X37155000Y-74827000D02*
X37155000Y-77827000D01*
X31505000Y-75577000D02*
X31505000Y-74827000D01*
X36155000Y-77577000D02*
X36155000Y-77077000D01*
X36155000Y-70497000D02*
X36155000Y-69997000D01*
X31505000Y-74827000D02*
X35805000Y-74827000D01*
X35805000Y-77077000D02*
X35805000Y-77827000D01*
X36155000Y-71997000D02*
X35805000Y-71997000D01*
X30645000Y-78977000D02*
X38115000Y-78977000D01*
X38115000Y-78977000D02*
X38115000Y-68597000D01*
X38115000Y-68597000D02*
X30645000Y-68597000D01*
X36155000Y-77077000D02*
X35805000Y-77077000D01*
X30645000Y-68597000D02*
X30645000Y-78977000D01*
X35805000Y-71997000D02*
X35805000Y-72747000D01*
X31505156Y-71996647D02*
G75*
G03*
X31505000Y-70497000I-1700162J749647D01*
G01*
X31505156Y-77076647D02*
G75*
G03*
X31505000Y-75577000I-1700162J749647D01*
G01*
%TO.C,R28*%
X107313400Y-53468264D02*
X107313400Y-53014136D01*
X105843400Y-53468264D02*
X105843400Y-53014136D01*
%TO.C,C46*%
X187425000Y-55273252D02*
X187425000Y-54750748D01*
X185955000Y-55273252D02*
X185955000Y-54750748D01*
%TO.C,C47*%
X209726200Y-55357752D02*
X209726200Y-54835248D01*
X208256200Y-55357752D02*
X208256200Y-54835248D01*
%TO.C,R70*%
X150468000Y-35974264D02*
X150468000Y-35520136D01*
X148998000Y-35974264D02*
X148998000Y-35520136D01*
%TO.C,U6*%
X113538000Y-112480000D02*
X115488000Y-112480000D01*
X113538000Y-103610000D02*
X115488000Y-103610000D01*
X113538000Y-112480000D02*
X111588000Y-112480000D01*
X113538000Y-103610000D02*
X110088000Y-103610000D01*
%TO.C,U13*%
X197089800Y-79572800D02*
X195139800Y-79572800D01*
X197089800Y-74452800D02*
X199039800Y-74452800D01*
X197089800Y-74452800D02*
X195139800Y-74452800D01*
X197089800Y-79572800D02*
X200539800Y-79572800D01*
%TO.C,U11*%
X172897800Y-80910500D02*
X174847800Y-80910500D01*
X172897800Y-72040500D02*
X169447800Y-72040500D01*
X172897800Y-72040500D02*
X174847800Y-72040500D01*
X172897800Y-80910500D02*
X170947800Y-80910500D01*
%TO.C,R108*%
X166460664Y-151941200D02*
X166006536Y-151941200D01*
X166460664Y-150471200D02*
X166006536Y-150471200D01*
%TO.C,R60*%
X143918000Y-52890664D02*
X143918000Y-52436536D01*
X145388000Y-52890664D02*
X145388000Y-52436536D01*
%TO.C,R7*%
X47524936Y-82269000D02*
X47979064Y-82269000D01*
X47524936Y-80799000D02*
X47979064Y-80799000D01*
%TO.C,C1*%
X38234252Y-149379000D02*
X37711748Y-149379000D01*
X38234252Y-150849000D02*
X37711748Y-150849000D01*
%TO.C,C11*%
X81909552Y-113333200D02*
X81387048Y-113333200D01*
X81909552Y-111863200D02*
X81387048Y-111863200D01*
%TO.C,C23*%
X159564400Y-101556452D02*
X159564400Y-101033948D01*
X161034400Y-101556452D02*
X161034400Y-101033948D01*
%TO.C,R130*%
X192200200Y-55340064D02*
X192200200Y-54885936D01*
X190730200Y-55340064D02*
X190730200Y-54885936D01*
%TO.C,RV1*%
X122458200Y-118720200D02*
X122458200Y-120506200D01*
X122458200Y-123460200D02*
X129408200Y-123460200D01*
X122458200Y-118720200D02*
X129408200Y-118720200D01*
X129408200Y-118720200D02*
X129408200Y-120506200D01*
X122458200Y-121496200D02*
X122458200Y-123460200D01*
X129408200Y-121496200D02*
X129408200Y-123460200D01*
%TO.C,J8*%
X169926800Y-48960000D02*
X169926800Y-47630000D01*
X172526800Y-46360000D02*
X169926800Y-46360000D01*
X171256800Y-48960000D02*
X169926800Y-48960000D01*
X169926800Y-43760000D02*
X180206800Y-43760000D01*
X172526800Y-48960000D02*
X180206800Y-48960000D01*
X169926800Y-46360000D02*
X169926800Y-43760000D01*
X180206800Y-48960000D02*
X180206800Y-43760000D01*
X172526800Y-48960000D02*
X172526800Y-46360000D01*
%TO.C,C4*%
X96433452Y-76455600D02*
X95910948Y-76455600D01*
X96433452Y-77925600D02*
X95910948Y-77925600D01*
%TO.C,U8*%
X101295200Y-142269400D02*
X103095200Y-142269400D01*
X101295200Y-142269400D02*
X100495200Y-142269400D01*
X101295200Y-139149400D02*
X102095200Y-139149400D01*
X101295200Y-139149400D02*
X100495200Y-139149400D01*
%TO.C,R79*%
X157430800Y-35545536D02*
X157430800Y-35999664D01*
X158900800Y-35545536D02*
X158900800Y-35999664D01*
%TO.C,C26*%
X108637400Y-136384148D02*
X108637400Y-136906652D01*
X110107400Y-136384148D02*
X110107400Y-136906652D01*
%TO.C,J4*%
X29883000Y-116349000D02*
X29883000Y-126729000D01*
X30743000Y-125579000D02*
X30743000Y-124829000D01*
X35393000Y-117749000D02*
X36393000Y-117499000D01*
X36393000Y-122579000D02*
X36393000Y-125579000D01*
X35393000Y-125329000D02*
X35393000Y-124829000D01*
X35393000Y-123329000D02*
X35393000Y-122829000D01*
X35043000Y-118249000D02*
X35393000Y-118249000D01*
X35043000Y-120499000D02*
X30743000Y-120499000D01*
X29883000Y-126729000D02*
X37353000Y-126729000D01*
X35393000Y-120249000D02*
X35393000Y-119749000D01*
X35043000Y-125579000D02*
X30743000Y-125579000D01*
X36393000Y-117499000D02*
X36393000Y-120499000D01*
X30743000Y-120499000D02*
X30743000Y-119749000D01*
X37353000Y-126729000D02*
X37353000Y-116349000D01*
X30743000Y-117499000D02*
X35043000Y-117499000D01*
X36393000Y-120499000D02*
X35393000Y-120249000D01*
X35393000Y-122829000D02*
X36393000Y-122579000D01*
X35043000Y-122579000D02*
X35043000Y-123329000D01*
X35043000Y-117499000D02*
X35043000Y-118249000D01*
X37743000Y-115959000D02*
X37743000Y-117959000D01*
X37353000Y-116349000D02*
X29883000Y-116349000D01*
X35393000Y-124829000D02*
X35043000Y-124829000D01*
X36493000Y-115959000D02*
X37743000Y-115959000D01*
X35043000Y-119749000D02*
X35043000Y-120499000D01*
X30743000Y-118249000D02*
X30743000Y-117499000D01*
X35393000Y-119749000D02*
X35043000Y-119749000D01*
X30743000Y-123329000D02*
X30743000Y-122579000D01*
X35393000Y-118249000D02*
X35393000Y-117749000D01*
X30743000Y-122579000D02*
X35043000Y-122579000D01*
X35043000Y-124829000D02*
X35043000Y-125579000D01*
X36393000Y-125579000D02*
X35393000Y-125329000D01*
X35043000Y-123329000D02*
X35393000Y-123329000D01*
X30743156Y-119748647D02*
G75*
G03*
X30743000Y-118249000I-1700162J749647D01*
G01*
X30743156Y-124828647D02*
G75*
G03*
X30743000Y-123329000I-1700162J749647D01*
G01*
%TO.C,C13*%
X82163552Y-58596200D02*
X81641048Y-58596200D01*
X82163552Y-57126200D02*
X81641048Y-57126200D01*
%TO.C,J6*%
X143383000Y-49116800D02*
X143383000Y-46516800D01*
X140783000Y-49116800D02*
X140783000Y-47786800D01*
X140783000Y-43916800D02*
X151063000Y-43916800D01*
X143383000Y-49116800D02*
X151063000Y-49116800D01*
X143383000Y-46516800D02*
X140783000Y-46516800D01*
X151063000Y-49116800D02*
X151063000Y-43916800D01*
X142113000Y-49116800D02*
X140783000Y-49116800D01*
X140783000Y-46516800D02*
X140783000Y-43916800D01*
%TD*%
M02*
